<svg width="100" height="34" viewBox="0 0 100 34" fill="none" xmlns="http://www.w3.org/2000/svg">
<path d="M16.9781 34C13.5003 34 10.4809 33.3296 7.91994 31.9887C5.39062 30.616 3.43039 28.7005 2.03927 26.2423C0.679755 23.7521 0 20.831 0 17.4789C0 14.1268 0.679755 11.2216 2.03927 8.76338C3.43039 6.27324 5.39062 4.35775 7.91994 3.0169C10.4809 1.64413 13.5003 0.957748 16.9781 0.957748C20.2978 0.957748 23.1591 1.48451 25.562 2.53803C27.9964 3.59155 29.8776 5.09202 31.2055 7.03944C32.5334 8.98686 33.1974 11.3333 33.1974 14.0789V14.7972H25.2774V14.0789C25.2774 11.9718 24.6293 10.4075 23.333 9.38592C22.0683 8.36432 19.9975 7.85352 17.1204 7.85352C14.8123 7.85352 12.947 8.17277 11.5242 8.81127C10.1331 9.41784 9.12137 10.4235 8.48904 11.8282C7.85671 13.2009 7.54054 15.0845 7.54054 17.4789C7.54054 19.8413 7.85671 21.7249 8.48904 23.1296C9.12137 24.5343 10.1331 25.5559 11.5242 26.1944C12.947 26.8009 14.8123 27.1042 17.1204 27.1042C19.9975 27.1042 22.0683 26.5934 23.333 25.5718C24.6293 24.5502 25.2774 22.9859 25.2774 20.8789V20.1606H33.1974V20.8789C33.1974 23.5925 32.5334 25.939 31.2055 27.9183C29.8776 29.8657 27.9964 31.3662 25.562 32.4197C23.1591 33.4732 20.2978 34 16.9781 34Z" fill="white" fill-opacity="0.1"/>
<path d="M41.0699 7.1831L46.334 18.9634C49.5589 26.2901 47.1403 30.5042 45.5278 33.5211L33.719 7.1831C31.7272 2.87324 29.3085 0.957748 25.6568 0C35.616 0 38.7935 1.96338 41.0699 7.1831ZM57.8108 7.1831L63.075 18.9634C66.2999 26.2901 63.8812 30.5042 62.2688 33.5211L50.46 7.1831C48.4681 2.87324 46.0495 0.957748 42.3978 0H60.5615C57.6211 0.957748 55.9138 2.87324 57.8108 7.1831ZM64.3554 0H78.5829C74.3147 1.43662 72.8919 2.87324 71.4692 7.1831C70.0464 2.87324 68.6237 1.43662 64.3554 0Z" fill="white" fill-opacity="0.1"/>
<path d="M85.8674 34C82.6741 34 79.9551 33.585 77.7103 32.7549C75.4656 31.893 73.7583 30.6319 72.5885 28.9718C71.4187 27.2798 70.8338 25.1887 70.8338 22.6986V22.4113H77.9475V23.2732C77.9475 24.2629 78.153 25.061 78.564 25.6676C79.0066 26.2742 79.797 26.7211 80.9352 27.0085C82.0734 27.2958 83.7175 27.4394 85.8674 27.4394C87.7644 27.4394 89.2188 27.3437 90.2305 27.1521C91.2422 26.9286 91.9378 26.5934 92.3172 26.1465C92.6966 25.6995 92.8863 25.1249 92.8863 24.4225C92.8863 23.4329 92.5543 22.7146 91.8904 22.2676C91.258 21.8207 90.1356 21.4535 88.5232 21.1662L79.6073 19.8732C77.7104 19.554 76.0821 19.0272 74.7226 18.293C73.3947 17.5587 72.3672 16.585 71.64 15.3718C70.9128 14.1268 70.5492 12.6263 70.5492 10.8704C70.5492 9.65728 70.8021 8.46009 71.308 7.27887C71.8455 6.09765 72.6833 5.04413 73.8215 4.11831C74.9597 3.16056 76.4457 2.39437 78.2794 1.81972C80.1448 1.24507 82.4212 0.957748 85.1086 0.957748C88.3651 0.957748 91.0367 1.43662 93.1234 2.39437C95.2417 3.32019 96.8225 4.64507 97.8659 6.36901C98.9092 8.06103 99.4309 10.0244 99.4309 12.2592V12.5465H92.2698V11.8761C92.2698 10.8545 92.0484 10.0244 91.6058 9.38592C91.1948 8.74742 90.4202 8.28451 89.282 7.99718C88.1438 7.67793 86.5156 7.51831 84.3972 7.51831C82.69 7.51831 81.3463 7.63005 80.3661 7.85352C79.4176 8.077 78.7379 8.41221 78.3269 8.85915C77.9159 9.3061 77.7103 9.88075 77.7103 10.5831C77.7103 11.1897 77.8368 11.7005 78.0897 12.1155C78.3427 12.4986 78.7379 12.8019 79.2754 13.0254C79.8128 13.2488 80.5242 13.4404 81.4095 13.6L90.3253 15.0366C92.6966 15.4197 94.5778 16.0423 95.9689 16.9042C97.3916 17.7662 98.4192 18.8197 99.0515 20.0648C99.6838 21.2779 100 22.6188 100 24.0873C100 25.8113 99.5258 27.4394 98.5773 28.9718C97.6288 30.4723 96.1112 31.6854 94.0245 32.6113C91.9378 33.5371 89.2188 34 85.8674 34Z" fill="white" fill-opacity="0.1"/>
</svg>
