<svg width="1696" height="1101" viewBox="0 0 1696 1101" fill="none" xmlns="http://www.w3.org/2000/svg">
<path d="M190.83 1089.8C162.55 1089.8 138.47 1086.16 118.59 1078.88C98.7096 1071.32 83.5896 1060.26 73.2296 1045.7C62.8696 1030.86 57.6896 1012.52 57.6896 990.68V988.16H120.69V995.72C120.69 1004.4 122.51 1011.4 126.15 1016.72C130.07 1022.04 137.07 1025.96 147.15 1028.48C157.23 1031 171.79 1032.26 190.83 1032.26C207.63 1032.26 220.51 1031.42 229.47 1029.74C238.43 1027.78 244.59 1024.84 247.95 1020.92C251.31 1017 252.99 1011.96 252.99 1005.8C252.99 997.12 250.05 990.82 244.17 986.9C238.57 982.98 228.63 979.76 214.35 977.24L135.39 965.9C118.59 963.1 104.17 958.48 92.1296 952.04C80.3696 945.6 71.2696 937.06 64.8296 926.42C58.3896 915.5 55.1696 902.34 55.1696 886.94C55.1696 876.3 57.4096 865.8 61.8896 855.44C66.6496 845.08 74.0696 835.84 84.1496 827.72C94.2296 819.32 107.39 812.6 123.63 807.56C140.15 802.52 160.31 800 184.11 800C212.95 800 236.61 804.2 255.09 812.6C273.85 820.72 287.85 832.34 297.09 847.46C306.33 862.3 310.95 879.52 310.95 899.12V901.64H247.53V895.76C247.53 886.8 245.57 879.52 241.65 873.92C238.01 868.32 231.15 864.26 221.07 861.74C210.99 858.94 196.57 857.54 177.81 857.54C162.69 857.54 150.79 858.52 142.11 860.48C133.71 862.44 127.69 865.38 124.05 869.3C120.41 873.22 118.59 878.26 118.59 884.42C118.59 889.74 119.71 894.22 121.95 897.86C124.19 901.22 127.69 903.88 132.45 905.84C137.21 907.8 143.51 909.48 151.35 910.88L230.31 923.48C251.31 926.84 267.97 932.3 280.29 939.86C292.89 947.42 301.99 956.66 307.59 967.58C313.19 978.22 315.99 989.98 315.99 1002.86C315.99 1017.98 311.79 1032.26 303.39 1045.7C294.99 1058.86 281.55 1069.5 263.07 1077.62C244.59 1085.74 220.51 1089.8 190.83 1089.8ZM498.306 1085.6H435.306V804.2H498.306V1085.6ZM602.886 860.9H330.726V804.2H602.886V860.9ZM761.554 1089.8C731.034 1089.8 705.554 1084.9 685.114 1075.1C664.674 1065.3 649.274 1051.3 638.914 1033.1C628.554 1014.9 623.374 993.2 623.374 968V804.2H686.374V963.38C686.374 979.34 688.614 992.22 693.094 1002.02C697.854 1011.54 705.694 1018.4 716.614 1022.6C727.814 1026.52 742.794 1028.48 761.554 1028.48C780.874 1028.48 795.994 1026.52 806.914 1022.6C817.834 1018.4 825.534 1011.54 830.014 1002.02C834.494 992.22 836.734 979.34 836.734 963.38V804.2H899.734V968C899.734 993.2 894.554 1014.9 884.194 1033.1C873.834 1051.3 858.434 1065.3 837.994 1075.1C817.834 1084.9 792.354 1089.8 761.554 1089.8ZM1070.47 1085.6H952.03V1028.9H1070.47C1089.79 1028.9 1105.19 1026.66 1116.67 1022.18C1128.43 1017.42 1136.97 1009.02 1142.29 996.98C1147.89 984.66 1150.69 967.3 1150.69 944.9C1150.69 922.22 1147.89 904.86 1142.29 892.82C1136.97 880.78 1128.43 872.52 1116.67 868.04C1105.19 863.28 1089.79 860.9 1070.47 860.9H952.03V804.2H1070.47C1100.71 804.2 1126.75 809.8 1148.59 821C1170.71 832.2 1187.79 848.3 1199.83 869.3C1211.87 890.3 1217.89 915.5 1217.89 944.9C1217.89 974.3 1211.87 999.5 1199.83 1020.5C1187.79 1041.5 1170.71 1057.6 1148.59 1068.8C1126.75 1080 1100.71 1085.6 1070.47 1085.6ZM997.81 1085.6H934.81V804.2H997.81V1085.6ZM1308.22 1085.6H1245.22V804.2H1308.22V1085.6ZM1486.1 1089.8C1455.3 1089.8 1428.42 1083.92 1405.46 1072.16C1382.78 1060.12 1365.28 1043.32 1352.96 1021.76C1340.92 999.92 1334.9 974.3 1334.9 944.9C1334.9 915.5 1340.92 890.02 1352.96 868.46C1365.28 846.62 1382.78 829.82 1405.46 818.06C1428.42 806.02 1455.3 800 1486.1 800C1518.02 800 1545.32 806.02 1568 818.06C1590.68 829.82 1608.18 846.62 1620.5 868.46C1632.82 890.02 1638.98 915.5 1638.98 944.9C1638.98 974.3 1632.82 999.92 1620.5 1021.76C1608.18 1043.32 1590.68 1060.12 1568 1072.16C1545.32 1083.92 1518.02 1089.8 1486.1 1089.8ZM1486.1 1029.32C1506.82 1029.32 1523.34 1026.66 1535.66 1021.34C1548.26 1015.74 1557.36 1006.78 1562.96 994.46C1568.84 982.14 1571.78 965.62 1571.78 944.9C1571.78 923.9 1568.84 907.38 1562.96 895.34C1557.36 883.02 1548.26 874.2 1535.66 868.88C1523.34 863.28 1506.82 860.48 1486.1 860.48C1465.66 860.48 1449.28 863.28 1436.96 868.88C1424.64 874.2 1415.68 883.02 1410.08 895.34C1404.48 907.38 1401.68 923.9 1401.68 944.9C1401.68 965.62 1404.48 982.14 1410.08 994.46C1415.68 1006.78 1424.64 1015.74 1436.96 1021.34C1449.28 1026.66 1465.66 1029.32 1486.1 1029.32Z" fill="black"/>
<path d="M356.93 743.6H223.13L128.33 341.6H229.13L277.73 569.6L291.53 657.8H298.13L316.73 569.6L383.93 341.6H517.73L584.33 569.6L602.93 657.8H609.53L623.33 569.6L671.931 341.6H770.331L674.93 743.6H541.131L481.13 542.6L452.93 426.8H446.33L418.13 542.6L356.93 743.6ZM891.395 743.6H801.395V341.6H891.395V743.6ZM1141.59 743.6H826.595V662.6H1141.59V743.6ZM1132.59 581.6H826.595V501.2H1132.59V581.6ZM1141.59 422.6H826.595V341.6H1141.59V422.6ZM1433.05 743.6H1180.45V341.6H1421.65C1449.25 341.6 1472.45 345.4 1491.25 353C1510.05 360.2 1524.25 371.2 1533.85 386C1543.45 400.4 1548.25 418.2 1548.25 439.4C1548.25 464.2 1541.05 485 1526.65 501.8C1512.25 518.2 1488.25 527.6 1454.65 530V535.4C1491.85 538.2 1519.45 548.2 1537.45 565.4C1555.85 582.6 1565.05 604.8 1565.05 632C1565.05 654.8 1560.25 674.6 1550.65 691.4C1541.05 708.2 1526.45 721.2 1506.85 730.4C1487.65 739.2 1463.05 743.6 1433.05 743.6ZM1270.45 575.6V662.6H1422.25C1440.65 662.6 1453.85 659.4 1461.85 653C1469.85 646.2 1473.85 634.8 1473.85 618.8C1473.85 602.8 1469.85 591.6 1461.85 585.2C1453.85 578.8 1440.65 575.6 1422.25 575.6H1270.45ZM1270.45 422.6V501.2H1411.45C1428.25 501.2 1440.25 498.2 1447.45 492.2C1454.65 485.8 1458.25 475.8 1458.25 462.2C1458.25 448.6 1454.45 438.6 1446.85 432.2C1439.25 425.8 1427.05 422.6 1410.25 422.6H1270.45Z" fill="black"/>
<path d="M160.86 289.8C130.06 289.8 103.32 283.92 80.64 272.16C58.24 260.12 40.88 243.32 28.56 221.76C16.52 199.92 10.5 174.3 10.5 144.9C10.5 115.5 16.52 90.02 28.56 68.46C40.88 46.62 58.24 29.82 80.64 18.06C103.32 6.01999 130.06 -4.52995e-06 160.86 -4.52995e-06C190.26 -4.52995e-06 215.6 4.61999 236.88 13.86C258.44 23.1 275.1 36.26 286.86 53.34C298.62 70.42 304.5 91 304.5 115.08V121.38H234.36V115.08C234.36 96.6 228.62 82.88 217.14 73.92C205.94 64.96 187.6 60.48 162.12 60.48C141.68 60.48 125.16 63.28 112.56 68.88C100.24 74.2 91.28 83.02 85.68 95.34C80.08 107.38 77.28 123.9 77.28 144.9C77.28 165.62 80.08 182.14 85.68 194.46C91.28 206.78 100.24 215.74 112.56 221.34C125.16 226.66 141.68 229.32 162.12 229.32C187.6 229.32 205.94 224.84 217.14 215.88C228.62 206.92 234.36 193.2 234.36 174.72V168.42H304.5V174.72C304.5 198.52 298.62 219.1 286.86 236.46C275.1 253.54 258.44 266.7 236.88 275.94C215.6 285.18 190.26 289.8 160.86 289.8ZM394.8 285.6H331.8V4.19999H394.8V285.6ZM571.837 289.8C541.037 289.8 514.297 283.92 491.617 272.16C469.217 260.12 451.857 243.32 439.537 221.76C427.497 199.92 421.477 174.3 421.477 144.9C421.477 115.5 427.497 90.02 439.537 68.46C451.857 46.62 469.217 29.82 491.617 18.06C514.297 6.01999 541.037 -4.52995e-06 571.837 -4.52995e-06C601.237 -4.52995e-06 626.577 4.61999 647.857 13.86C669.417 23.1 686.077 36.26 697.837 53.34C709.597 70.42 715.477 91 715.477 115.08V121.38H645.337V115.08C645.337 96.6 639.597 82.88 628.117 73.92C616.917 64.96 598.577 60.48 573.097 60.48C552.657 60.48 536.137 63.28 523.537 68.88C511.217 74.2 502.257 83.02 496.657 95.34C491.057 107.38 488.257 123.9 488.257 144.9C488.257 165.62 491.057 182.14 496.657 194.46C502.257 206.78 511.217 215.74 523.537 221.34C536.137 226.66 552.657 229.32 573.097 229.32C598.577 229.32 616.917 224.84 628.117 215.88C639.597 206.92 645.337 193.2 645.337 174.72V168.42H715.477V174.72C715.477 198.52 709.597 219.1 697.837 236.46C686.077 253.54 669.417 266.7 647.857 275.94C626.577 285.18 601.237 289.8 571.837 289.8ZM805.777 285.6H742.777V4.19999H805.777V285.6ZM980.917 285.6H760.417V228.9H980.917V285.6ZM974.617 172.2H760.417V115.92H974.617V172.2ZM980.917 60.9H760.417V4.19999H980.917V60.9ZM1072.38 285.6H1009.38V4.19999H1164.78C1188.02 4.19999 1207.76 7.55999 1224 14.28C1240.24 20.72 1252.56 30.24 1260.96 42.84C1269.36 55.44 1273.56 70.7 1273.56 88.62C1273.56 104.02 1270.62 117.18 1264.74 128.1C1258.86 139.02 1250.04 147.84 1238.28 154.56C1226.52 161 1211.82 165.06 1194.18 166.74V170.1C1206.78 173.46 1216.16 178.5 1222.32 185.22C1228.48 191.94 1234.22 200.2 1239.54 210L1280.28 285.6H1207.2L1168.56 212.52C1164.64 205.24 1160.58 199.5 1156.38 195.3C1152.18 191.1 1146.72 188.16 1140 186.48C1133.56 184.52 1124.88 183.54 1113.96 183.54H1072.38V285.6ZM1072.38 60.9V136.08H1164.36C1179.2 136.08 1190.12 133.56 1197.12 128.52C1204.12 123.2 1207.62 113.12 1207.62 98.28C1207.62 84.28 1204.12 74.62 1197.12 69.3C1190.12 63.7 1179.2 60.9 1164.36 60.9H1072.38ZM1445.08 289.8C1414.28 289.8 1387.4 283.92 1364.44 272.16C1341.76 260.12 1324.26 243.32 1311.94 221.76C1299.9 199.92 1293.88 174.3 1293.88 144.9C1293.88 115.5 1299.9 90.02 1311.94 68.46C1324.26 46.62 1341.76 29.82 1364.44 18.06C1387.4 6.01999 1414.28 -4.52995e-06 1445.08 -4.52995e-06C1477 -4.52995e-06 1504.3 6.01999 1526.98 18.06C1549.66 29.82 1567.16 46.62 1579.48 68.46C1591.8 90.02 1597.96 115.5 1597.96 144.9C1597.96 174.3 1591.8 199.92 1579.48 221.76C1567.16 243.32 1549.66 260.12 1526.98 272.16C1504.3 283.92 1477 289.8 1445.08 289.8ZM1445.08 229.32C1465.8 229.32 1482.32 226.66 1494.64 221.34C1507.24 215.74 1516.34 206.78 1521.94 194.46C1527.82 182.14 1530.76 165.62 1530.76 144.9C1530.76 123.9 1527.82 107.38 1521.94 95.34C1516.34 83.02 1507.24 74.2 1494.64 68.88C1482.32 63.28 1465.8 60.48 1445.08 60.48C1424.64 60.48 1408.26 63.28 1395.94 68.88C1383.62 74.2 1374.66 83.02 1369.06 95.34C1363.46 107.38 1360.66 123.9 1360.66 144.9C1360.66 165.62 1363.46 182.14 1369.06 194.46C1374.66 206.78 1383.62 215.74 1395.94 221.34C1408.26 226.66 1424.64 229.32 1445.08 229.32Z" fill="black"/>
</svg>
