<svg preserveAspectRatio="none" width="100%" height="100%" overflow="visible" style="display: block;" viewBox="0 0 635.575 128.011" fill="none" xmlns="http://www.w3.org/2000/svg">
<path id="Vector" d="M66.3433 128.011C52.7536 128.011 40.9549 125.414 30.9478 120.219C21.0643 114.901 13.4045 107.48 7.96861 97.9566C2.65619 88.3093 0 76.9924 0 64.0057C0 51.0191 2.65619 39.7638 7.96861 30.2404C13.4045 20.5931 21.0643 13.1722 30.9478 7.97753C40.9549 2.65916 52.7536 0 66.3433 0C79.3154 0 90.496 2.04076 99.8856 6.12228C109.398 10.2038 116.749 16.0167 121.938 23.5615C127.127 31.1063 129.722 40.197 129.722 50.8335V53.6164H98.7737V50.8335C98.7737 42.6705 96.2409 36.6099 91.1757 32.6522C86.2338 28.6945 78.1419 26.7154 66.8992 26.7154C57.8803 26.7154 50.5914 27.9524 45.0319 30.4259C39.596 32.776 35.6425 36.672 33.1716 42.1139C30.7008 47.4324 29.4653 54.7295 29.4653 64.0057C29.4653 73.1581 30.7008 80.4557 33.1716 85.8975C35.6425 91.3394 39.596 95.2975 45.0319 97.771C50.5914 100.121 57.8803 101.296 66.8992 101.296C78.1419 101.296 86.2338 99.3169 91.1757 95.3592C96.2409 91.4016 98.7737 85.341 98.7737 77.1779V74.3951H129.722V77.1779C129.722 87.6911 127.127 96.7817 121.938 104.45C116.749 111.995 109.398 117.808 99.8856 121.889C90.496 125.971 79.3154 128.011 66.3433 128.011ZM156.592 126.156H128.795V1.85524H156.592V126.156ZM221.734 128.011C208.144 128.011 196.346 125.414 186.338 120.219C176.455 114.901 168.795 107.48 163.359 97.9566C158.047 88.3093 155.391 76.9924 155.391 64.0057C155.391 51.0191 158.047 39.7638 163.359 30.2404C168.795 20.5931 176.455 13.1722 186.338 7.97753C196.346 2.65916 208.144 0 221.734 0C234.706 0 245.887 2.04076 255.276 6.12228C264.789 10.2038 272.14 16.0167 277.329 23.5615C282.518 31.1063 285.112 40.197 285.112 50.8335V53.6164H254.164V50.8335C254.164 42.6705 251.632 36.6099 246.566 32.6522C241.625 28.6945 233.533 26.7154 222.29 26.7154C213.271 26.7154 205.982 27.9524 200.423 30.4259C194.987 32.776 191.033 36.672 188.562 42.1139C186.092 47.4324 184.856 54.7295 184.856 64.0057C184.856 73.1581 186.092 80.4557 188.562 85.8975C191.033 91.3394 194.987 95.2975 200.423 97.771C205.982 100.121 213.271 101.296 222.29 101.296C233.533 101.296 241.625 99.3169 246.566 95.3592C251.632 91.4016 254.164 85.341 254.164 77.1779V74.3951H285.112V77.1779C285.112 87.6911 282.518 96.7817 277.329 104.45C272.14 111.995 264.789 117.808 255.276 121.889C245.887 125.971 234.706 128.011 221.734 128.011ZM311.983 126.156H284.186V1.85524H311.983V126.156ZM389.26 126.156H291.969V101.11H389.26V126.156ZM386.48 76.0648H291.969V51.2046H386.48V76.0648ZM389.26 26.901H291.969V1.85524H389.26V26.901ZM416.644 126.156H388.846V1.85524H457.413C467.669 1.85524 476.379 3.33943 483.542 6.30781C490.709 9.15249 496.143 13.3577 499.849 18.9234C503.556 24.4891 505.409 31.2297 505.409 39.1455C505.409 45.9482 504.112 51.7611 501.517 56.5848C498.923 61.4084 495.031 65.3044 489.842 68.2728C484.653 71.1173 478.167 72.9109 470.384 73.653V75.1371C475.944 76.6213 480.085 78.8476 482.8 81.816C485.52 84.7844 488.054 88.4332 490.398 92.7619L508.374 126.156H476.129L459.08 93.8751C457.351 90.6595 455.56 88.1238 453.707 86.2686C451.854 84.4133 449.445 83.1147 446.48 82.3726C443.638 81.5066 439.808 81.0739 434.99 81.0739H416.644V126.156ZM416.644 26.901V60.1097H457.228C463.778 60.1097 468.596 58.9966 471.681 56.7703C474.771 54.4202 476.314 49.9676 476.314 43.4126C476.314 37.2286 474.771 32.9615 471.681 30.6114C468.596 28.1379 463.778 26.901 457.228 26.901H416.644ZM568.12 128.011C554.527 128.011 542.667 125.414 532.539 120.219C522.532 114.901 514.809 107.48 509.375 97.9566C504.061 88.3093 501.406 76.9924 501.406 64.0057C501.406 51.0191 504.061 39.7638 509.375 30.2404C514.809 20.5931 522.532 13.1722 532.539 7.97753C542.667 2.65916 554.527 0 568.12 0C582.204 0 594.25 2.65916 604.257 7.97753C614.264 13.1722 621.982 20.5931 627.421 30.2404C632.856 39.7638 635.575 51.0191 635.575 64.0057C635.575 76.9924 632.856 88.3093 627.421 97.9566C621.982 107.48 614.264 114.901 604.257 120.219C594.25 125.414 582.204 128.011 568.12 128.011ZM568.12 101.296C577.261 101.296 584.548 100.121 589.987 97.771C595.547 95.2975 599.559 91.3394 602.033 85.8975C604.627 80.4557 605.925 73.1581 605.925 64.0057C605.925 54.7295 604.627 47.4324 602.033 42.1139C599.559 36.672 595.547 32.776 589.987 30.4259C584.548 27.9524 577.261 26.7154 568.12 26.7154C559.1 26.7154 551.872 27.9524 546.438 30.4259C540.999 32.776 537.047 36.672 534.578 42.1139C532.104 47.4324 530.871 54.7295 530.871 64.0057C530.871 73.1581 532.104 80.4557 534.578 85.8975C537.047 91.3394 540.999 95.2975 546.438 97.771C551.872 100.121 559.1 101.296 568.12 101.296Z" fill="var(--fill-0, #D4610E)"/>
</svg>
