<svg width="158" height="105" viewBox="0 0 158 105" fill="none" xmlns="http://www.w3.org/2000/svg">
<path d="M15.32 35.4C12.3867 35.4 9.84 34.84 7.68 33.72C5.54667 32.5733 3.89333 30.9733 2.72 28.92C1.57333 26.84 1 24.4 1 21.6C1 18.8 1.57333 16.3733 2.72 14.32C3.89333 12.24 5.54667 10.64 7.68 9.52C9.84 8.37333 12.3867 7.8 15.32 7.8C18.12 7.8 20.5333 8.24 22.56 9.12C24.6133 10 26.2 11.2533 27.32 12.88C28.44 14.5067 29 16.4667 29 18.76V19.36H22.32V18.76C22.32 17 21.7733 15.6933 20.68 14.84C19.6133 13.9867 17.8667 13.56 15.44 13.56C13.4933 13.56 11.92 13.8267 10.72 14.36C9.54667 14.8667 8.69333 15.7067 8.16 16.88C7.62667 18.0267 7.36 19.6 7.36 21.6C7.36 23.5733 7.62667 25.1467 8.16 26.32C8.69333 27.4933 9.54667 28.3467 10.72 28.88C11.92 29.3867 13.4933 29.64 15.44 29.64C17.8667 29.64 19.6133 29.2133 20.68 28.36C21.7733 27.5067 22.32 26.2 22.32 24.44V23.84H29V24.44C29 26.7067 28.44 28.6667 27.32 30.32C26.2 31.9467 24.6133 33.2 22.56 34.08C20.5333 34.96 18.12 35.4 15.32 35.4ZM34.8 35H28.8V8.2H34.8V35ZM48.8606 35.4C45.9273 35.4 43.3806 34.84 41.2206 33.72C39.0873 32.5733 37.434 30.9733 36.2606 28.92C35.114 26.84 34.5406 24.4 34.5406 21.6C34.5406 18.8 35.114 16.3733 36.2606 14.32C37.434 12.24 39.0873 10.64 41.2206 9.52C43.3806 8.37333 45.9273 7.8 48.8606 7.8C51.6606 7.8 54.074 8.24 56.1006 9.12C58.154 10 59.7406 11.2533 60.8606 12.88C61.9806 14.5067 62.5406 16.4667 62.5406 18.76V19.36H55.8606V18.76C55.8606 17 55.314 15.6933 54.2206 14.84C53.154 13.9867 51.4073 13.56 48.9806 13.56C47.034 13.56 45.4606 13.8267 44.2606 14.36C43.0873 14.8667 42.234 15.7067 41.7006 16.88C41.1673 18.0267 40.9006 19.6 40.9006 21.6C40.9006 23.5733 41.1673 25.1467 41.7006 26.32C42.234 27.4933 43.0873 28.3467 44.2606 28.88C45.4606 29.3867 47.034 29.64 48.9806 29.64C51.4073 29.64 53.154 29.2133 54.2206 28.36C55.314 27.5067 55.8606 26.2 55.8606 24.44V23.84H62.5406V24.44C62.5406 26.7067 61.9806 28.6667 60.8606 30.32C59.7406 31.9467 58.154 33.2 56.1006 34.08C54.074 34.96 51.6606 35.4 48.8606 35.4ZM68.3406 35H62.3406V8.2H68.3406V35ZM85.0206 35H64.0206V29.6H85.0206V35ZM84.4206 24.2H64.0206V18.84H84.4206V24.2ZM85.0206 13.6H64.0206V8.2H85.0206V13.6ZM90.9313 35H84.9313V8.2H99.7313C101.945 8.2 103.825 8.52 105.371 9.16C106.918 9.77333 108.091 10.68 108.891 11.88C109.691 13.08 110.091 14.5333 110.091 16.24C110.091 17.7067 109.811 18.96 109.251 20C108.691 21.04 107.851 21.88 106.731 22.52C105.611 23.1333 104.211 23.52 102.531 23.68V24C103.731 24.32 104.625 24.8 105.211 25.44C105.798 26.08 106.345 26.8667 106.851 27.8L110.731 35H103.771L100.091 28.04C99.7179 27.3467 99.3313 26.8 98.9313 26.4C98.5313 26 98.0113 25.72 97.3713 25.56C96.7579 25.3733 95.9313 25.28 94.8913 25.28H90.9313V35ZM90.9313 13.6V20.76H99.6913C101.105 20.76 102.145 20.52 102.811 20.04C103.478 19.5333 103.811 18.5733 103.811 17.16C103.811 15.8267 103.478 14.9067 102.811 14.4C102.145 13.8667 101.105 13.6 99.6913 13.6H90.9313ZM123.627 35.4C120.693 35.4 118.133 34.84 115.947 33.72C113.787 32.5733 112.12 30.9733 110.947 28.92C109.8 26.84 109.227 24.4 109.227 21.6C109.227 18.8 109.8 16.3733 110.947 14.32C112.12 12.24 113.787 10.64 115.947 9.52C118.133 8.37333 120.693 7.8 123.627 7.8C126.667 7.8 129.267 8.37333 131.427 9.52C133.587 10.64 135.253 12.24 136.427 14.32C137.6 16.3733 138.187 18.8 138.187 21.6C138.187 24.4 137.6 26.84 136.427 28.92C135.253 30.9733 133.587 32.5733 131.427 33.72C129.267 34.84 126.667 35.4 123.627 35.4ZM123.627 29.64C125.6 29.64 127.173 29.3867 128.347 28.88C129.547 28.3467 130.413 27.4933 130.947 26.32C131.507 25.1467 131.787 23.5733 131.787 21.6C131.787 19.6 131.507 18.0267 130.947 16.88C130.413 15.7067 129.547 14.8667 128.347 14.36C127.173 13.8267 125.6 13.56 123.627 13.56C121.68 13.56 120.12 13.8267 118.947 14.36C117.773 14.8667 116.92 15.7067 116.387 16.88C115.853 18.0267 115.587 19.6 115.587 21.6C115.587 23.5733 115.853 25.1467 116.387 26.32C116.92 27.4933 117.773 28.3467 118.947 28.88C120.12 29.3867 121.68 29.64 123.627 29.64Z" fill="#D4610E"/>
<path d="M13.64 43L18.08 52.84C20.8 58.96 18.76 62.48 17.4 65L7.44 43C5.76 39.4 3.72 37.8 0.64 37C9.04 37 11.72 38.64 13.64 43ZM27.76 43L32.2 52.84C34.92 58.96 32.88 62.48 31.52 65L21.56 43C19.88 39.4 17.84 37.8 14.76 37H30.08C27.6 37.8 26.16 39.4 27.76 43ZM33.28 37H45.28C41.68 38.2 40.48 39.4 39.28 43C38.08 39.4 36.88 38.2 33.28 37ZM52.5613 65H42.1613C44.3613 62.72 44.7613 61.24 44.7613 57V45C44.7613 40.76 44.3613 39.28 42.1613 37H52.5613C50.3613 39.28 49.9613 40.76 49.9613 45V57C49.9613 61.24 50.3613 62.72 52.5613 65ZM56.5613 37H62.5613V43C61.3613 39.4 60.1613 38.2 56.5613 37ZM52.1613 50.72C53.9213 50.6 56.8013 49.44 58.1613 47.72V53.72C56.7613 52 53.9213 50.84 52.1613 50.72ZM62.5613 59V65H56.5613C60.1613 63.8 61.3613 62.6 62.5613 59ZM72.3003 65H61.9003C64.1003 62.72 64.5003 61.24 64.5003 57V45C64.5003 40.76 64.1003 39.28 61.9003 37H72.3003C70.1003 39.28 69.7003 40.76 69.7003 45V57C69.7003 61.24 70.1003 62.72 72.3003 65ZM76.3003 65C80.0603 63.96 83.1403 61.64 83.1403 57.08C83.1403 52.52 78.0603 49.84 74.3003 49.16C77.2603 48.52 81.5403 46.44 81.5403 43.08C81.5403 39.72 79.6603 38.08 76.3003 37C81.1403 37 87.5403 37.6 87.5403 43.08C87.5403 48.32 82.0603 49 80.1003 49.16C82.8603 49.4 89.1403 50.64 89.1403 57.08C89.1403 63.76 82.3403 65 76.3003 65Z" fill="#F5F5F5"/>
<path d="M13.76 95.4C11.0667 95.4 8.77333 95.0533 6.88 94.36C4.98667 93.64 3.54667 92.5867 2.56 91.2C1.57333 89.7867 1.08 88.04 1.08 85.96V85.72H7.08V86.44C7.08 87.2667 7.25333 87.9333 7.6 88.44C7.97333 88.9467 8.64 89.32 9.6 89.56C10.56 89.8 11.9467 89.92 13.76 89.92C15.36 89.92 16.5867 89.84 17.44 89.68C18.2933 89.4933 18.88 89.2133 19.2 88.84C19.52 88.4667 19.68 87.9867 19.68 87.4C19.68 86.5733 19.4 85.9733 18.84 85.6C18.3067 85.2267 17.36 84.92 16 84.68L8.48 83.6C6.88 83.3333 5.50667 82.8933 4.36 82.28C3.24 81.6667 2.37333 80.8533 1.76 79.84C1.14667 78.8 0.84 77.5467 0.84 76.08C0.84 75.0667 1.05333 74.0667 1.48 73.08C1.93333 72.0933 2.64 71.2133 3.6 70.44C4.56 69.64 5.81333 69 7.36 68.52C8.93333 68.04 10.8533 67.8 13.12 67.8C15.8667 67.8 18.12 68.2 19.88 69C21.6667 69.7733 23 70.88 23.88 72.32C24.76 73.7333 25.2 75.3733 25.2 77.24V77.48H19.16V76.92C19.16 76.0667 18.9733 75.3733 18.6 74.84C18.2533 74.3067 17.6 73.92 16.64 73.68C15.68 73.4133 14.3067 73.28 12.52 73.28C11.08 73.28 9.94667 73.3733 9.12 73.56C8.32 73.7467 7.74667 74.0267 7.4 74.4C7.05333 74.7733 6.88 75.2533 6.88 75.84C6.88 76.3467 6.98667 76.7733 7.2 77.12C7.41333 77.44 7.74667 77.6933 8.2 77.88C8.65333 78.0667 9.25333 78.2267 10 78.36L17.52 79.56C19.52 79.88 21.1067 80.4 22.28 81.12C23.48 81.84 24.3467 82.72 24.88 83.76C25.4133 84.7733 25.68 85.8933 25.68 87.12C25.68 88.56 25.28 89.92 24.48 91.2C23.68 92.4533 22.4 93.4667 20.64 94.24C18.88 95.0133 16.5867 95.4 13.76 95.4ZM40.2434 95H34.2434V68.2H40.2434V95ZM50.2034 73.6H24.2834V68.2H50.2034V73.6ZM62.5147 95.4C59.608 95.4 57.1814 94.9333 55.2347 94C53.288 93.0667 51.8214 91.7333 50.8347 90C49.848 88.2667 49.3547 86.2 49.3547 83.8V68.2H55.3547V83.36C55.3547 84.88 55.568 86.1067 55.9947 87.04C56.448 87.9467 57.1947 88.6 58.2347 89C59.3014 89.3733 60.728 89.56 62.5147 89.56C64.3547 89.56 65.7947 89.3733 66.8347 89C67.8747 88.6 68.608 87.9467 69.0347 87.04C69.4614 86.1067 69.6747 84.88 69.6747 83.36V68.2H75.6747V83.8C75.6747 86.2 75.1814 88.2667 74.1947 90C73.208 91.7333 71.7414 93.0667 69.7947 94C67.8747 94.9333 65.448 95.4 62.5147 95.4ZM89.1353 95H77.8553V89.6H89.1353C90.9753 89.6 92.442 89.3867 93.5353 88.96C94.6553 88.5067 95.4686 87.7067 95.9753 86.56C96.5086 85.3867 96.7753 83.7333 96.7753 81.6C96.7753 79.44 96.5086 77.7867 95.9753 76.64C95.4686 75.4933 94.6553 74.7067 93.5353 74.28C92.442 73.8267 90.9753 73.6 89.1353 73.6H77.8553V68.2H89.1353C92.0153 68.2 94.4953 68.7333 96.5753 69.8C98.682 70.8667 100.309 72.4 101.455 74.4C102.602 76.4 103.175 78.8 103.175 81.6C103.175 84.4 102.602 86.8 101.455 88.8C100.309 90.8 98.682 92.3333 96.5753 93.4C94.4953 94.4667 92.0153 95 89.1353 95ZM82.2153 95H76.2153V68.2H82.2153V95ZM108.978 95H102.978V68.2H108.978V95ZM123.119 95.4C120.185 95.4 117.625 94.84 115.439 93.72C113.279 92.5733 111.612 90.9733 110.439 88.92C109.292 86.84 108.719 84.4 108.719 81.6C108.719 78.8 109.292 76.3733 110.439 74.32C111.612 72.24 113.279 70.64 115.439 69.52C117.625 68.3733 120.185 67.8 123.119 67.8C126.159 67.8 128.759 68.3733 130.919 69.52C133.079 70.64 134.745 72.24 135.919 74.32C137.092 76.3733 137.679 78.8 137.679 81.6C137.679 84.4 137.092 86.84 135.919 88.92C134.745 90.9733 133.079 92.5733 130.919 93.72C128.759 94.84 126.159 95.4 123.119 95.4ZM123.119 89.64C125.092 89.64 126.665 89.3867 127.839 88.88C129.039 88.3467 129.905 87.4933 130.439 86.32C130.999 85.1467 131.279 83.5733 131.279 81.6C131.279 79.6 130.999 78.0267 130.439 76.88C129.905 75.7067 129.039 74.8667 127.839 74.36C126.665 73.8267 125.092 73.56 123.119 73.56C121.172 73.56 119.612 73.8267 118.439 74.36C117.265 74.8667 116.412 75.7067 115.879 76.88C115.345 78.0267 115.079 79.6 115.079 81.6C115.079 83.5733 115.345 85.1467 115.879 86.32C116.412 87.4933 117.265 88.3467 118.439 88.88C119.612 89.3867 121.172 89.64 123.119 89.64Z" fill="#413D3D"/>
</svg>
