<svg preserveAspectRatio="none" width="100%" height="100%" overflow="visible" style="display: block;" viewBox="0 0 633.963 128.011" fill="none" xmlns="http://www.w3.org/2000/svg">
<path id="Vector" d="M59.8572 128.011C47.3794 128.011 36.7544 126.403 27.9828 123.188C19.2112 119.848 12.5398 114.963 7.96861 108.531C3.39745 101.976 1.1119 93.875 1.1119 84.2278V83.1147H28.9094V86.4541C28.9094 90.2884 29.7124 93.3802 31.3185 95.7303C33.0481 98.0804 36.1367 99.8118 40.5843 100.925C45.0319 102.038 51.4564 102.595 59.8572 102.595C67.2699 102.595 72.9531 102.224 76.9063 101.482C80.8596 100.616 83.5777 99.3169 85.0603 97.5855C86.5428 95.8541 87.2841 93.6278 87.2841 90.9067C87.2841 87.0723 85.9868 84.2895 83.3924 82.5581C80.9217 80.8267 76.5357 79.4042 70.2349 78.291L35.3954 73.2819C27.9828 72.0449 21.6203 70.0041 16.3079 67.1596C11.119 64.3151 7.10378 60.5424 4.26228 55.8426C1.42078 51.019 0 45.2061 0 38.4034C0 33.7036 0.988339 29.0655 2.96506 24.4891C5.0653 19.9127 8.33924 15.8312 12.7868 12.2446C17.2344 8.53409 23.041 5.56568 30.2066 3.3394C37.4957 1.11311 46.3907 0 56.8922 0C69.6174 0 80.0567 1.85522 88.2106 5.5657C96.4883 9.15234 102.665 14.2853 106.742 20.9642C110.819 27.5192 112.858 35.1257 112.858 43.7836V44.8968H84.8749V42.2994C84.8749 38.3417 84.01 35.1257 82.2805 32.6522C80.6743 30.1787 77.6476 28.3851 73.2 27.272C68.7524 26.035 62.39 25.4167 54.1124 25.4167C47.441 25.4167 42.1904 25.8495 38.3605 26.7154C34.6542 27.5813 31.998 28.88 30.3919 30.6114C28.7858 32.3428 27.9828 34.5691 27.9828 37.2903C27.9828 39.6404 28.477 41.619 29.4653 43.227C30.4537 44.7112 31.998 45.886 34.0982 46.752C36.1985 47.6179 38.9782 48.36 42.4375 48.9783L77.277 54.544C86.5428 56.0282 93.8938 58.44 99.3296 61.7794C104.889 65.1189 108.904 69.2004 111.375 74.024C113.846 78.7238 115.082 83.9184 115.082 89.608C115.082 96.2869 113.228 102.595 109.522 108.531C105.816 114.344 99.8856 119.045 91.7316 122.631C83.5777 126.218 72.9531 128.011 59.8572 128.011ZM182.552 126.156H154.755V1.85521H182.552V126.156ZM228.696 26.9009H108.611V1.85521H228.696V26.9009ZM285.733 128.011C272.267 128.011 261.025 125.847 252.006 121.518C242.987 117.189 236.192 111.005 231.621 102.966C227.05 94.9265 224.764 85.341 224.764 74.2095V1.85521H252.562V72.1688C252.562 79.2187 253.55 84.9082 255.527 89.2369C257.627 93.4423 261.086 96.4724 265.905 98.3276C270.846 100.059 277.456 100.925 285.733 100.925C294.258 100.925 300.929 100.059 305.748 98.3276C310.566 96.4724 313.963 93.4423 315.94 89.2369C317.917 84.9082 318.905 79.2187 318.905 72.1688V1.85521H346.703V74.2095C346.703 85.341 344.417 94.9265 339.846 102.966C335.275 111.005 328.48 117.189 319.461 121.518C310.566 125.847 299.323 128.011 285.733 128.011ZM409.064 126.156H356.805V101.11H409.064C417.589 101.11 424.384 100.121 429.449 98.1421C434.638 96.0396 438.406 92.3291 440.753 87.0106C443.224 81.5688 444.46 73.9001 444.46 64.0057C444.46 53.9874 443.224 46.3193 440.753 41.0007C438.406 35.6822 434.638 32.0339 429.449 30.0548C424.384 27.9524 417.589 26.9009 409.064 26.9009H356.805V1.85521H409.064C422.407 1.85521 433.897 4.32873 443.533 9.27619C453.293 14.2236 460.831 21.3352 466.14 30.6114C471.454 39.8876 474.109 51.019 474.109 64.0057C474.109 76.9924 471.454 88.1238 466.14 97.4C460.831 106.676 453.293 113.788 443.533 118.735C433.897 123.683 422.407 126.156 409.064 126.156ZM377.005 126.156H349.207V1.85521H377.005V126.156ZM500.994 126.156H473.196V1.85521H500.994V126.156ZM566.508 128.011C552.915 128.011 541.055 125.414 530.927 120.219C520.92 114.901 513.197 107.48 507.763 97.9566C502.449 88.3093 499.794 76.9924 499.794 64.0057C499.794 51.019 502.449 39.7638 507.763 30.2404C513.197 20.5931 520.92 13.1722 530.927 7.97749C541.055 2.65899 552.915 0 566.508 0C580.592 0 592.637 2.65899 602.645 7.97749C612.652 13.1722 620.37 20.5931 625.809 30.2404C631.244 39.7638 633.963 51.019 633.963 64.0057C633.963 76.9924 631.244 88.3093 625.809 97.9566C620.37 107.48 612.652 114.901 602.645 120.219C592.637 125.414 580.592 128.011 566.508 128.011ZM566.508 101.296C575.649 101.296 582.936 100.121 588.375 97.771C593.935 95.2975 597.947 91.3394 600.421 85.8975C603.015 80.4556 604.312 73.158 604.312 64.0057C604.312 54.7295 603.015 47.4324 600.421 42.1139C597.947 36.672 593.935 32.776 588.375 30.4259C582.936 27.9524 575.649 26.7154 566.508 26.7154C557.488 26.7154 550.26 27.9524 544.826 30.4259C539.387 32.776 535.435 36.672 532.966 42.1139C530.492 47.4324 529.259 54.7295 529.259 64.0057C529.259 73.158 530.492 80.4556 532.966 85.8975C535.435 91.3394 539.387 95.2975 544.826 97.771C550.26 100.121 557.488 101.296 566.508 101.296Z" fill="var(--fill-0, #413D3D)"/>
</svg>
