<svg preserveAspectRatio="none" width="100%" height="100%" overflow="visible" style="display: block;" viewBox="0 0 410.014 129.867" fill="none" xmlns="http://www.w3.org/2000/svg">
<path id="Vector" d="M80.798 73.4674C84.9986 83.1147 87.0987 91.896 87.0987 99.8118C87.0987 105.625 86.2338 110.758 84.5043 115.21C82.8981 119.539 80.6127 124.425 77.6476 129.867L31.5038 27.8286C27.6739 19.6655 23.2881 13.4816 18.3463 9.27619C13.4045 4.94746 7.2891 1.85524 0 0C12.9722 0 23.2881 0.927612 30.9478 2.78285C38.6076 4.51425 44.5996 7.35926 48.9235 11.3169C53.3711 15.2746 57.1391 20.7787 60.2278 27.8286L80.798 73.4674ZM146.215 73.4674C150.415 83.1147 152.515 91.896 152.515 99.8118C152.515 105.625 151.65 110.758 149.921 115.21C148.315 119.539 146.029 124.425 143.064 129.867L96.9205 27.8286C93.0905 19.6655 88.705 13.4816 83.763 9.27619C78.8211 4.94746 72.7057 1.85524 65.4167 0H136.393C127.127 2.96838 122.494 8.10136 122.494 15.3985C122.494 19.109 123.544 23.2522 125.645 27.8286L146.215 73.4674ZM206.813 0C201.13 1.85524 196.621 3.896 193.285 6.12228C189.949 8.22473 187.17 10.9459 184.946 14.2853C182.846 17.6248 180.869 22.139 179.016 27.8286C177.163 22.139 175.124 17.6248 172.9 14.2853C170.8 10.9459 168.082 8.22473 164.746 6.12228C161.411 3.896 156.901 1.85524 151.218 0H206.813ZM192.365 129.867C195.823 126.28 198.356 122.941 199.962 119.848C201.692 116.756 202.865 113.231 203.483 109.274C204.101 105.192 204.41 99.688 204.41 92.7619V37.1048C204.41 30.1787 204.101 24.7364 203.483 20.7787C202.865 16.6971 201.692 13.1105 199.962 10.0183C198.356 6.92607 195.823 3.58664 192.365 0H240.547C237.087 3.58664 234.493 6.92607 232.763 10.0183C231.157 13.1105 230.045 16.6971 229.428 20.7787C228.81 24.7364 228.501 30.1787 228.501 37.1048V92.7619C228.501 99.688 228.81 105.192 229.428 109.274C230.045 113.231 231.157 116.756 232.763 119.848C234.493 122.941 237.087 126.28 240.547 129.867H192.365ZM286.876 27.8286C285.023 22.139 282.984 17.6248 280.76 14.2853C278.66 10.9459 275.942 8.22473 272.607 6.12228C269.271 3.896 264.761 1.85524 259.078 0H286.876V27.8286ZM238.694 63.6347C243.141 63.3875 248.145 61.965 253.704 59.3676C259.264 56.6464 263.526 53.4309 266.491 49.7204V77.549C263.402 73.8385 259.078 70.6846 253.519 68.0872C248.083 65.3661 243.141 63.8819 238.694 63.6347ZM259.078 129.867C264.761 128.011 269.271 126.032 272.607 123.93C275.942 121.704 278.66 118.921 280.76 115.581C282.984 112.242 285.023 107.728 286.876 102.038V129.867H259.078ZM283.814 129.867C287.273 126.28 289.805 122.941 291.412 119.848C293.141 116.756 294.315 113.231 294.933 109.274C295.55 105.192 295.859 99.688 295.859 92.7619V37.1048C295.859 30.1787 295.55 24.7364 294.933 20.7787C294.315 16.6971 293.141 13.1105 291.412 10.0183C289.805 6.92607 287.273 3.58664 283.814 0H331.996C328.536 3.58664 325.942 6.92607 324.213 10.0183C322.606 13.1105 321.494 16.6971 320.877 20.7787C320.259 24.7364 319.95 30.1787 319.95 37.1048V92.7619C319.95 99.688 320.259 105.192 320.877 109.274C321.494 113.231 322.606 116.756 324.213 119.848C325.942 122.941 328.536 126.28 331.996 129.867H283.814ZM350.527 129.867C360.164 127.269 367.824 123.002 373.507 117.066C379.313 111.005 382.217 103.027 382.217 93.133C382.217 86.5779 380.116 80.7029 375.916 75.5082C371.715 70.3135 366.465 66.1082 360.164 62.8926C353.863 59.677 347.562 57.5124 341.262 56.3992C349.662 54.544 357.323 51.1429 364.241 46.1954C371.283 41.248 374.804 35.2495 374.804 28.1996C374.804 20.6548 372.765 14.7181 368.688 10.3893C364.735 6.06061 358.681 2.59733 350.527 0C365.476 0 377.893 1.91693 387.776 5.75125C397.659 9.46172 402.601 16.9444 402.601 28.1996C402.601 38.7128 398.957 45.8861 391.668 49.7204C384.379 53.4309 376.533 55.6571 368.133 56.3992C378.387 57.2652 387.9 60.3569 396.671 65.6754C405.566 70.9939 410.014 80.1463 410.014 93.133C410.014 107.109 404.393 116.756 393.15 122.075C381.908 127.269 367.7 129.867 350.527 129.867Z" fill="var(--fill-0, #F5F5F5)"/>
</svg>
