<svg preserveAspectRatio="none" width="100%" height="100%" overflow="visible" style="display: block;" viewBox="0 0 21.0466 21.0466" fill="none" xmlns="http://www.w3.org/2000/svg">
<g id="memory:arrow-up-bold">
<path id="Vector" d="M1.91333 11.48V9.56664H2.86999V8.60998H3.82666V7.65331H4.78332V6.69665H5.73999V5.73999H6.69665V4.78332H7.65331V3.82666H8.60998V2.86999H9.56664V1.91333H11.48V2.86999H12.4366V3.82666H13.3933V4.78332H14.35V5.73999H15.3066V6.69665H16.2633V7.65331H17.22V8.60998H18.1766V9.56664H19.1333V11.48H14.35V19.1333H6.69665V11.48H1.91333ZM5.73999 9.56664H8.60998V17.22H12.4366V9.56664H15.3066V8.60998H14.35V7.65331H13.3933V6.69665H12.4366V5.73999H11.48V4.78332H9.56664V5.73999H8.60998V6.69665H7.65331V7.65331H6.69665V8.60998H5.73999V9.56664Z" fill="var(--fill-0, #D4610E)"/>
</g>
</svg>
