<svg preserveAspectRatio="none" width="100%" height="100%" overflow="visible" style="display: block;" viewBox="0 0 55 50" fill="none" xmlns="http://www.w3.org/2000/svg">
<g id="g4">
<path id="path2" d="M50.7341 0H4.11357C1.82825 0 0 1.66667 0 3.61111V46.3889C0 48.3333 1.82825 50 4.11357 50H50.8864C53.1717 50 55 48.3333 55 46.3889V3.61111C54.8476 1.66667 53.0194 0 50.7341 0ZM16.3019 42.6389H8.07479V18.75H16.1496V42.6389H16.3019ZM12.1884 15.4167C9.59834 15.4167 7.46537 13.4722 7.46537 11.1111C7.46537 8.75 9.59834 6.94444 12.1884 6.94444C14.7784 6.94444 16.9114 8.88889 16.9114 11.25C16.9114 13.6111 14.7784 15.4167 12.1884 15.4167ZM46.7729 42.6389H38.6981V30.9722C38.6981 28.1944 38.6981 24.5833 34.4321 24.5833C30.1662 24.5833 29.5568 27.6389 29.5568 30.6944V42.5H21.3296V18.75H29.0997V21.9444H29.2521C30.3186 20 33.0609 18.0556 37.0222 18.0556C45.2493 18.0556 46.7729 23.0556 46.7729 29.4444V42.6389Z" fill="var(--fill-0, black)"/>
</g>
</svg>
