<svg preserveAspectRatio="none" width="100%" height="100%" overflow="visible" style="display: block;" viewBox="0 0 24 23" fill="none" xmlns="http://www.w3.org/2000/svg">
<g id="Vector">
<mask id="path-1-inside-1_0_24" fill="white">
<path d="M20.3727 8.36308L24 14.6369H16.7455L20.3727 8.36308Z"/>
<path d="M4.96716 3.81228L8.59443 10.0861H1.33989L4.96716 3.81228Z"/>
<path d="M15.4143 16L19.0416 22.2738H11.7871L15.4143 16Z"/>
<path d="M13.288 0.0980748L16.9153 6.37192H9.66078L13.288 0.0980748Z"/>
<path d="M6.40909 14.596L10.0364 20.8699H2.78182L6.40909 14.596Z"/>
<path d="M20.0793 6.16828L23.7065 12.4421H16.452L20.0793 6.16828Z"/>
<path d="M4.01772 5.81331L7.64499 12.0871H0.390448L4.01772 5.81331Z"/>
<path d="M17.3011 14.8368L20.9284 21.1106H13.6738L17.3011 14.8368Z"/>
<path d="M11.0712 0.0490808L14.6985 6.32292H7.44395L11.0712 0.0490808Z"/>
<path d="M8.24248 15.8415L11.8697 22.1153H4.61521L8.24248 15.8415Z"/>
<path d="M19.2194 4.12727L22.8467 10.4011H15.5921L19.2194 4.12727Z"/>
<path d="M3.62729 7.99299L7.25456 14.2668H2.30076e-05L3.62729 7.99299Z"/>
<path d="M18.8162 13.22L22.4434 19.4938H15.1889L18.8162 13.22Z"/>
<path d="M8.91918 0.582631L12.5464 6.85647H5.29191L8.91918 0.582631Z"/>
<path d="M10.3389 16.5629L13.9661 22.8368H6.71159L10.3389 16.5629Z"/>
<path d="M17.8534 2.38305L21.4807 8.6569H14.2261L17.8534 2.38305Z"/>
<path d="M3.82324 10.1986L7.45051 16.4724H0.195969L3.82324 10.1986Z"/>
<path d="M19.8533 11.2628L23.4806 17.5367H16.2261L19.8533 11.2628Z"/>
<path d="M6.98272 1.66134L10.61 7.93518H3.35545L6.98272 1.66134Z"/>
<path d="M12.5514 16.7098L16.1786 22.9836H8.92408L12.5514 16.7098Z"/>
<path d="M16.077 1.05784L19.7043 7.33169H12.4497L16.077 1.05784Z"/>
<path d="M4.59183 12.2756L8.2191 18.5495H0.964558L4.59183 12.2756Z"/>
<path d="M20.3399 9.10255L23.9672 15.3764H16.7127L20.3399 9.10255Z"/>
<path d="M5.39752 3.20963L9.02479 9.48347H1.77025L5.39752 3.20963Z"/>
<path d="M14.7249 16.2719L18.3522 22.5457H11.0977L14.7249 16.2719Z"/>
<path d="M14.0146 0.244495L17.6419 6.51834H10.3874L14.0146 0.244495Z"/>
<path d="M5.8792 14.0785L9.50647 20.3523H2.25194L5.8792 14.0785Z"/>
<path d="M20.2419 6.89044L23.8692 13.1643H16.6146L20.2419 6.89044Z"/>
<path d="M4.27466 5.11901L7.90193 11.3929H0.647394L4.27466 5.11901Z"/>
<path d="M16.7073 15.2798L20.3345 21.5536H13.08L16.7073 15.2798Z"/>
<path d="M11.8108 0L15.4381 6.27384H8.18354L11.8108 0Z"/>
<path d="M7.59517 15.4809L11.2224 21.7547H3.9679L7.59517 15.4809Z"/>
<path d="M19.5661 4.78151L23.1934 11.0554H15.9388L19.5661 4.78151Z"/>
<path d="M3.69282 7.25569L7.32009 13.5295H0.0655462L3.69282 7.25569Z"/>
<path d="M18.3595 13.803L21.9868 20.0769H14.7322L18.3595 13.803Z"/>
<path d="M9.61997 0.34149L13.2472 6.61533H5.9927L9.61997 0.34149Z"/>
<path d="M9.61948 16.3845L13.2468 22.6584H5.99221L9.61948 16.3845Z"/>
<path d="M18.3598 2.92354L21.9871 9.19738H14.7326L18.3598 2.92354Z"/>
<path d="M3.69275 9.46997L7.32002 15.7438H0.0654797L3.69275 9.46997Z"/>
<path d="M19.5659 11.9451L23.1931 18.219H15.9386L19.5659 11.9451Z"/>
<path d="M7.5956 1.24504L11.2229 7.51888H3.96833L7.5956 1.24504Z"/>
<path d="M11.8103 16.7262L15.4376 23H8.18304L11.8103 16.7262Z"/>
<path d="M16.7077 1.4467L20.335 7.72054H13.0804L16.7077 1.4467Z"/>
<path d="M4.27447 11.6067L7.90174 17.8805H0.647198L4.27447 11.6067Z"/>
<path d="M20.2418 9.83623L23.8691 16.1101H16.6145L20.2418 9.83623Z"/>
<path d="M5.87955 2.64733L9.50682 8.92117H2.25228L5.87955 2.64733Z"/>
<path d="M14.0141 16.4818L17.6414 22.7556H10.3869L14.0141 16.4818Z"/>
<path d="M14.7254 0.454481L18.3527 6.72832H11.0981L14.7254 0.454481Z"/>
<path d="M5.39721 13.5161L9.02448 19.79H1.76994L5.39721 13.5161Z"/>
<path d="M20.34 7.62412L23.9673 13.898H16.7127L20.34 7.62412Z"/>
<path d="M4.59206 4.45011L8.21933 10.724H0.964794L4.59206 4.45011Z"/>
<path d="M16.0766 15.6686L19.7038 21.9424H12.4493L16.0766 15.6686Z"/>
<path d="M12.5519 0.0163994L16.1791 6.29024H8.92459L12.5519 0.0163994Z"/>
<path d="M6.98231 15.0645L10.6096 21.3384H3.35504L6.98231 15.0645Z"/>
<path d="M19.8535 5.46379L23.4808 11.7376H16.2262L19.8535 5.46379Z"/>
<path d="M3.82335 6.52707L7.45062 12.8009H0.19608L3.82335 6.52707Z"/>
<path d="M17.853 14.3435L21.4803 20.6173H14.2258L17.853 14.3435Z"/>
<path d="M10.3394 0.163157L13.9666 6.437H6.71209L10.3394 0.163157Z"/>
<path d="M8.91871 16.1434L12.546 22.4172H5.29144L8.91871 16.1434Z"/>
<path d="M18.8165 3.50661L22.4437 9.78045H15.1892L18.8165 3.50661Z"/>
<path d="M3.62727 8.73267L7.25454 15.0065H0L3.62727 8.73267Z"/>
<path d="M19.2191 12.5993L22.8464 18.8732H15.5919L19.2191 12.5993Z"/>
<path d="M8.24293 0.884462L11.8702 7.15831H4.61566L8.24293 0.884462Z"/>
<path d="M11.0707 16.677L14.698 22.9509H7.44344L11.0707 16.677Z"/>
<path d="M17.3015 1.88971L20.9288 8.16355H13.6742L17.3015 1.88971Z"/>
<path d="M4.01756 10.9124L7.64483 17.1862H0.390294L4.01756 10.9124Z"/>
<path d="M20.0791 10.5584L23.7064 16.8322H16.4519L20.0791 10.5584Z"/>
<path d="M6.40947 2.12978L10.0367 8.40363H2.7822L6.40947 2.12978Z"/>
<path d="M13.2875 16.6282L16.9148 22.902H9.66028L13.2875 16.6282Z"/>
<path d="M15.4148 0.726388L19.0421 7.00023H11.7875L15.4148 0.726388Z"/>
<path d="M4.96688 12.9135L8.59415 19.1873H1.33961L4.96688 12.9135Z"/>
<path d="M20.3727 8.36359L24 14.6374H16.7455L20.3727 8.36359Z"/>
<path d="M4.96743 3.81186L8.5947 10.0857H1.34016L4.96743 3.81186Z"/>
<path d="M15.4139 16.0002L19.0411 22.274H11.7866L15.4139 16.0002Z"/>
<path d="M13.2885 0.0981513L16.9158 6.372H9.66128L13.2885 0.0981513Z"/>
<path d="M6.40871 14.5957L10.036 20.8696H2.78144L6.40871 14.5957Z"/>
<path d="M20.0794 6.16877L23.7067 12.4426H16.4521L20.0794 6.16877Z"/>
<path d="M4.01787 5.81282L7.64514 12.0867H0.390602L4.01787 5.81282Z"/>
<path d="M17.3007 14.8371L20.928 21.1109H13.6735L17.3007 14.8371Z"/>
<path d="M11.0717 0.0490246L14.699 6.32287H7.44445L11.0717 0.0490246Z"/>
<path d="M8.24203 15.8413L11.8693 22.1151H4.61476L8.24203 15.8413Z"/>
<path d="M19.2197 4.1277L22.8469 10.4015H15.5924L19.2197 4.1277Z"/>
<path d="M3.62731 7.99248L7.25458 14.2663H4.4737e-05L3.62731 7.99248Z"/>
<path d="M18.8159 13.2204L22.4431 19.4942H15.1886L18.8159 13.2204Z"/>
<path d="M8.91965 0.582444L12.5469 6.85629H5.29238L8.91965 0.582444Z"/>
<path d="M10.3384 16.5628L13.9656 22.8367H6.7111L10.3384 16.5628Z"/>
<path d="M17.8538 2.3834L21.481 8.65725H14.2265L17.8538 2.3834Z"/>
<path d="M3.82313 10.1981L7.4504 16.472H0.195859L3.82313 10.1981Z"/>
<path d="M19.8531 11.2633L23.4804 17.5372H16.2259L19.8531 11.2633Z"/>
<path d="M6.98312 1.66104L10.6104 7.93488H3.35585L6.98312 1.66104Z"/>
<path d="M12.5508 16.7098L16.1781 22.9837H8.92358L12.5508 16.7098Z"/>
<path d="M16.0774 1.05809L19.7047 7.33193H12.4502L16.0774 1.05809Z"/>
<path d="M4.59159 12.2752L8.21886 18.549H0.964321L4.59159 12.2752Z"/>
<path d="M20.3399 9.10305L23.9672 15.3769H16.7126L20.3399 9.10305Z"/>
<path d="M5.39783 3.20923L9.0251 9.48307H1.77056L5.39783 3.20923Z"/>
<path d="M14.7244 16.272L18.3517 22.5459H11.0972L14.7244 16.272Z"/>
<path d="M14.0151 0.244618L17.6424 6.51846H10.3878L14.0151 0.244618Z"/>
<path d="M5.87886 14.0781L9.50613 20.3519H2.25159L5.87886 14.0781Z"/>
<path d="M20.242 6.89093L23.8693 13.1648H16.6147L20.242 6.89093Z"/>
<path d="M4.27486 5.11854L7.90213 11.3924H0.647589L4.27486 5.11854Z"/>
</mask>
<path d="M20.3727 8.36308L24 14.6369H16.7455L20.3727 8.36308Z" stroke="var(--stroke-0, #D4610E)" stroke-width="0.18" mask="url(#path-1-inside-1_0_24)"/>
<path d="M4.96716 3.81228L8.59443 10.0861H1.33989L4.96716 3.81228Z" stroke="var(--stroke-0, #D4610E)" stroke-width="0.18" mask="url(#path-1-inside-1_0_24)"/>
<path d="M15.4143 16L19.0416 22.2738H11.7871L15.4143 16Z" stroke="var(--stroke-0, #D4610E)" stroke-width="0.18" mask="url(#path-1-inside-1_0_24)"/>
<path d="M13.288 0.0980748L16.9153 6.37192H9.66078L13.288 0.0980748Z" stroke="var(--stroke-0, #D4610E)" stroke-width="0.18" mask="url(#path-1-inside-1_0_24)"/>
<path d="M6.40909 14.596L10.0364 20.8699H2.78182L6.40909 14.596Z" stroke="var(--stroke-0, #D4610E)" stroke-width="0.18" mask="url(#path-1-inside-1_0_24)"/>
<path d="M20.0793 6.16828L23.7065 12.4421H16.452L20.0793 6.16828Z" stroke="var(--stroke-0, #D4610E)" stroke-width="0.18" mask="url(#path-1-inside-1_0_24)"/>
<path d="M4.01772 5.81331L7.64499 12.0871H0.390448L4.01772 5.81331Z" stroke="var(--stroke-0, #D4610E)" stroke-width="0.18" mask="url(#path-1-inside-1_0_24)"/>
<path d="M17.3011 14.8368L20.9284 21.1106H13.6738L17.3011 14.8368Z" stroke="var(--stroke-0, #D4610E)" stroke-width="0.18" mask="url(#path-1-inside-1_0_24)"/>
<path d="M11.0712 0.0490808L14.6985 6.32292H7.44395L11.0712 0.0490808Z" stroke="var(--stroke-0, #D4610E)" stroke-width="0.18" mask="url(#path-1-inside-1_0_24)"/>
<path d="M8.24248 15.8415L11.8697 22.1153H4.61521L8.24248 15.8415Z" stroke="var(--stroke-0, #D4610E)" stroke-width="0.18" mask="url(#path-1-inside-1_0_24)"/>
<path d="M19.2194 4.12727L22.8467 10.4011H15.5921L19.2194 4.12727Z" stroke="var(--stroke-0, #D4610E)" stroke-width="0.18" mask="url(#path-1-inside-1_0_24)"/>
<path d="M3.62729 7.99299L7.25456 14.2668H2.30076e-05L3.62729 7.99299Z" stroke="var(--stroke-0, #D4610E)" stroke-width="0.18" mask="url(#path-1-inside-1_0_24)"/>
<path d="M18.8162 13.22L22.4434 19.4938H15.1889L18.8162 13.22Z" stroke="var(--stroke-0, #D4610E)" stroke-width="0.18" mask="url(#path-1-inside-1_0_24)"/>
<path d="M8.91918 0.582631L12.5464 6.85647H5.29191L8.91918 0.582631Z" stroke="var(--stroke-0, #D4610E)" stroke-width="0.18" mask="url(#path-1-inside-1_0_24)"/>
<path d="M10.3389 16.5629L13.9661 22.8368H6.71159L10.3389 16.5629Z" stroke="var(--stroke-0, #D4610E)" stroke-width="0.18" mask="url(#path-1-inside-1_0_24)"/>
<path d="M17.8534 2.38305L21.4807 8.6569H14.2261L17.8534 2.38305Z" stroke="var(--stroke-0, #D4610E)" stroke-width="0.18" mask="url(#path-1-inside-1_0_24)"/>
<path d="M3.82324 10.1986L7.45051 16.4724H0.195969L3.82324 10.1986Z" stroke="var(--stroke-0, #D4610E)" stroke-width="0.18" mask="url(#path-1-inside-1_0_24)"/>
<path d="M19.8533 11.2628L23.4806 17.5367H16.2261L19.8533 11.2628Z" stroke="var(--stroke-0, #D4610E)" stroke-width="0.18" mask="url(#path-1-inside-1_0_24)"/>
<path d="M6.98272 1.66134L10.61 7.93518H3.35545L6.98272 1.66134Z" stroke="var(--stroke-0, #D4610E)" stroke-width="0.18" mask="url(#path-1-inside-1_0_24)"/>
<path d="M12.5514 16.7098L16.1786 22.9836H8.92408L12.5514 16.7098Z" stroke="var(--stroke-0, #D4610E)" stroke-width="0.18" mask="url(#path-1-inside-1_0_24)"/>
<path d="M16.077 1.05784L19.7043 7.33169H12.4497L16.077 1.05784Z" stroke="var(--stroke-0, #D4610E)" stroke-width="0.18" mask="url(#path-1-inside-1_0_24)"/>
<path d="M4.59183 12.2756L8.2191 18.5495H0.964558L4.59183 12.2756Z" stroke="var(--stroke-0, #D4610E)" stroke-width="0.18" mask="url(#path-1-inside-1_0_24)"/>
<path d="M20.3399 9.10255L23.9672 15.3764H16.7127L20.3399 9.10255Z" stroke="var(--stroke-0, #D4610E)" stroke-width="0.18" mask="url(#path-1-inside-1_0_24)"/>
<path d="M5.39752 3.20963L9.02479 9.48347H1.77025L5.39752 3.20963Z" stroke="var(--stroke-0, #D4610E)" stroke-width="0.18" mask="url(#path-1-inside-1_0_24)"/>
<path d="M14.7249 16.2719L18.3522 22.5457H11.0977L14.7249 16.2719Z" stroke="var(--stroke-0, #D4610E)" stroke-width="0.18" mask="url(#path-1-inside-1_0_24)"/>
<path d="M14.0146 0.244495L17.6419 6.51834H10.3874L14.0146 0.244495Z" stroke="var(--stroke-0, #D4610E)" stroke-width="0.18" mask="url(#path-1-inside-1_0_24)"/>
<path d="M5.8792 14.0785L9.50647 20.3523H2.25194L5.8792 14.0785Z" stroke="var(--stroke-0, #D4610E)" stroke-width="0.18" mask="url(#path-1-inside-1_0_24)"/>
<path d="M20.2419 6.89044L23.8692 13.1643H16.6146L20.2419 6.89044Z" stroke="var(--stroke-0, #D4610E)" stroke-width="0.18" mask="url(#path-1-inside-1_0_24)"/>
<path d="M4.27466 5.11901L7.90193 11.3929H0.647394L4.27466 5.11901Z" stroke="var(--stroke-0, #D4610E)" stroke-width="0.18" mask="url(#path-1-inside-1_0_24)"/>
<path d="M16.7073 15.2798L20.3345 21.5536H13.08L16.7073 15.2798Z" stroke="var(--stroke-0, #D4610E)" stroke-width="0.18" mask="url(#path-1-inside-1_0_24)"/>
<path d="M11.8108 0L15.4381 6.27384H8.18354L11.8108 0Z" stroke="var(--stroke-0, #D4610E)" stroke-width="0.18" mask="url(#path-1-inside-1_0_24)"/>
<path d="M7.59517 15.4809L11.2224 21.7547H3.9679L7.59517 15.4809Z" stroke="var(--stroke-0, #D4610E)" stroke-width="0.18" mask="url(#path-1-inside-1_0_24)"/>
<path d="M19.5661 4.78151L23.1934 11.0554H15.9388L19.5661 4.78151Z" stroke="var(--stroke-0, #D4610E)" stroke-width="0.18" mask="url(#path-1-inside-1_0_24)"/>
<path d="M3.69282 7.25569L7.32009 13.5295H0.0655462L3.69282 7.25569Z" stroke="var(--stroke-0, #D4610E)" stroke-width="0.18" mask="url(#path-1-inside-1_0_24)"/>
<path d="M18.3595 13.803L21.9868 20.0769H14.7322L18.3595 13.803Z" stroke="var(--stroke-0, #D4610E)" stroke-width="0.18" mask="url(#path-1-inside-1_0_24)"/>
<path d="M9.61997 0.34149L13.2472 6.61533H5.9927L9.61997 0.34149Z" stroke="var(--stroke-0, #D4610E)" stroke-width="0.18" mask="url(#path-1-inside-1_0_24)"/>
<path d="M9.61948 16.3845L13.2468 22.6584H5.99221L9.61948 16.3845Z" stroke="var(--stroke-0, #D4610E)" stroke-width="0.18" mask="url(#path-1-inside-1_0_24)"/>
<path d="M18.3598 2.92354L21.9871 9.19738H14.7326L18.3598 2.92354Z" stroke="var(--stroke-0, #D4610E)" stroke-width="0.18" mask="url(#path-1-inside-1_0_24)"/>
<path d="M3.69275 9.46997L7.32002 15.7438H0.0654797L3.69275 9.46997Z" stroke="var(--stroke-0, #D4610E)" stroke-width="0.18" mask="url(#path-1-inside-1_0_24)"/>
<path d="M19.5659 11.9451L23.1931 18.219H15.9386L19.5659 11.9451Z" stroke="var(--stroke-0, #D4610E)" stroke-width="0.18" mask="url(#path-1-inside-1_0_24)"/>
<path d="M7.5956 1.24504L11.2229 7.51888H3.96833L7.5956 1.24504Z" stroke="var(--stroke-0, #D4610E)" stroke-width="0.18" mask="url(#path-1-inside-1_0_24)"/>
<path d="M11.8103 16.7262L15.4376 23H8.18304L11.8103 16.7262Z" stroke="var(--stroke-0, #D4610E)" stroke-width="0.18" mask="url(#path-1-inside-1_0_24)"/>
<path d="M16.7077 1.4467L20.335 7.72054H13.0804L16.7077 1.4467Z" stroke="var(--stroke-0, #D4610E)" stroke-width="0.18" mask="url(#path-1-inside-1_0_24)"/>
<path d="M4.27447 11.6067L7.90174 17.8805H0.647198L4.27447 11.6067Z" stroke="var(--stroke-0, #D4610E)" stroke-width="0.18" mask="url(#path-1-inside-1_0_24)"/>
<path d="M20.2418 9.83623L23.8691 16.1101H16.6145L20.2418 9.83623Z" stroke="var(--stroke-0, #D4610E)" stroke-width="0.18" mask="url(#path-1-inside-1_0_24)"/>
<path d="M5.87955 2.64733L9.50682 8.92117H2.25228L5.87955 2.64733Z" stroke="var(--stroke-0, #D4610E)" stroke-width="0.18" mask="url(#path-1-inside-1_0_24)"/>
<path d="M14.0141 16.4818L17.6414 22.7556H10.3869L14.0141 16.4818Z" stroke="var(--stroke-0, #D4610E)" stroke-width="0.18" mask="url(#path-1-inside-1_0_24)"/>
<path d="M14.7254 0.454481L18.3527 6.72832H11.0981L14.7254 0.454481Z" stroke="var(--stroke-0, #D4610E)" stroke-width="0.18" mask="url(#path-1-inside-1_0_24)"/>
<path d="M5.39721 13.5161L9.02448 19.79H1.76994L5.39721 13.5161Z" stroke="var(--stroke-0, #D4610E)" stroke-width="0.18" mask="url(#path-1-inside-1_0_24)"/>
<path d="M20.34 7.62412L23.9673 13.898H16.7127L20.34 7.62412Z" stroke="var(--stroke-0, #D4610E)" stroke-width="0.18" mask="url(#path-1-inside-1_0_24)"/>
<path d="M4.59206 4.45011L8.21933 10.724H0.964794L4.59206 4.45011Z" stroke="var(--stroke-0, #D4610E)" stroke-width="0.18" mask="url(#path-1-inside-1_0_24)"/>
<path d="M16.0766 15.6686L19.7038 21.9424H12.4493L16.0766 15.6686Z" stroke="var(--stroke-0, #D4610E)" stroke-width="0.18" mask="url(#path-1-inside-1_0_24)"/>
<path d="M12.5519 0.0163994L16.1791 6.29024H8.92459L12.5519 0.0163994Z" stroke="var(--stroke-0, #D4610E)" stroke-width="0.18" mask="url(#path-1-inside-1_0_24)"/>
<path d="M6.98231 15.0645L10.6096 21.3384H3.35504L6.98231 15.0645Z" stroke="var(--stroke-0, #D4610E)" stroke-width="0.18" mask="url(#path-1-inside-1_0_24)"/>
<path d="M19.8535 5.46379L23.4808 11.7376H16.2262L19.8535 5.46379Z" stroke="var(--stroke-0, #D4610E)" stroke-width="0.18" mask="url(#path-1-inside-1_0_24)"/>
<path d="M3.82335 6.52707L7.45062 12.8009H0.19608L3.82335 6.52707Z" stroke="var(--stroke-0, #D4610E)" stroke-width="0.18" mask="url(#path-1-inside-1_0_24)"/>
<path d="M17.853 14.3435L21.4803 20.6173H14.2258L17.853 14.3435Z" stroke="var(--stroke-0, #D4610E)" stroke-width="0.18" mask="url(#path-1-inside-1_0_24)"/>
<path d="M10.3394 0.163157L13.9666 6.437H6.71209L10.3394 0.163157Z" stroke="var(--stroke-0, #D4610E)" stroke-width="0.18" mask="url(#path-1-inside-1_0_24)"/>
<path d="M8.91871 16.1434L12.546 22.4172H5.29144L8.91871 16.1434Z" stroke="var(--stroke-0, #D4610E)" stroke-width="0.18" mask="url(#path-1-inside-1_0_24)"/>
<path d="M18.8165 3.50661L22.4437 9.78045H15.1892L18.8165 3.50661Z" stroke="var(--stroke-0, #D4610E)" stroke-width="0.18" mask="url(#path-1-inside-1_0_24)"/>
<path d="M3.62727 8.73267L7.25454 15.0065H0L3.62727 8.73267Z" stroke="var(--stroke-0, #D4610E)" stroke-width="0.18" mask="url(#path-1-inside-1_0_24)"/>
<path d="M19.2191 12.5993L22.8464 18.8732H15.5919L19.2191 12.5993Z" stroke="var(--stroke-0, #D4610E)" stroke-width="0.18" mask="url(#path-1-inside-1_0_24)"/>
<path d="M8.24293 0.884462L11.8702 7.15831H4.61566L8.24293 0.884462Z" stroke="var(--stroke-0, #D4610E)" stroke-width="0.18" mask="url(#path-1-inside-1_0_24)"/>
<path d="M11.0707 16.677L14.698 22.9509H7.44344L11.0707 16.677Z" stroke="var(--stroke-0, #D4610E)" stroke-width="0.18" mask="url(#path-1-inside-1_0_24)"/>
<path d="M17.3015 1.88971L20.9288 8.16355H13.6742L17.3015 1.88971Z" stroke="var(--stroke-0, #D4610E)" stroke-width="0.18" mask="url(#path-1-inside-1_0_24)"/>
<path d="M4.01756 10.9124L7.64483 17.1862H0.390294L4.01756 10.9124Z" stroke="var(--stroke-0, #D4610E)" stroke-width="0.18" mask="url(#path-1-inside-1_0_24)"/>
<path d="M20.0791 10.5584L23.7064 16.8322H16.4519L20.0791 10.5584Z" stroke="var(--stroke-0, #D4610E)" stroke-width="0.18" mask="url(#path-1-inside-1_0_24)"/>
<path d="M6.40947 2.12978L10.0367 8.40363H2.7822L6.40947 2.12978Z" stroke="var(--stroke-0, #D4610E)" stroke-width="0.18" mask="url(#path-1-inside-1_0_24)"/>
<path d="M13.2875 16.6282L16.9148 22.902H9.66028L13.2875 16.6282Z" stroke="var(--stroke-0, #D4610E)" stroke-width="0.18" mask="url(#path-1-inside-1_0_24)"/>
<path d="M15.4148 0.726388L19.0421 7.00023H11.7875L15.4148 0.726388Z" stroke="var(--stroke-0, #D4610E)" stroke-width="0.18" mask="url(#path-1-inside-1_0_24)"/>
<path d="M4.96688 12.9135L8.59415 19.1873H1.33961L4.96688 12.9135Z" stroke="var(--stroke-0, #D4610E)" stroke-width="0.18" mask="url(#path-1-inside-1_0_24)"/>
<path d="M20.3727 8.36359L24 14.6374H16.7455L20.3727 8.36359Z" stroke="var(--stroke-0, #D4610E)" stroke-width="0.18" mask="url(#path-1-inside-1_0_24)"/>
<path d="M4.96743 3.81186L8.5947 10.0857H1.34016L4.96743 3.81186Z" stroke="var(--stroke-0, #D4610E)" stroke-width="0.18" mask="url(#path-1-inside-1_0_24)"/>
<path d="M15.4139 16.0002L19.0411 22.274H11.7866L15.4139 16.0002Z" stroke="var(--stroke-0, #D4610E)" stroke-width="0.18" mask="url(#path-1-inside-1_0_24)"/>
<path d="M13.2885 0.0981513L16.9158 6.372H9.66128L13.2885 0.0981513Z" stroke="var(--stroke-0, #D4610E)" stroke-width="0.18" mask="url(#path-1-inside-1_0_24)"/>
<path d="M6.40871 14.5957L10.036 20.8696H2.78144L6.40871 14.5957Z" stroke="var(--stroke-0, #D4610E)" stroke-width="0.18" mask="url(#path-1-inside-1_0_24)"/>
<path d="M20.0794 6.16877L23.7067 12.4426H16.4521L20.0794 6.16877Z" stroke="var(--stroke-0, #D4610E)" stroke-width="0.18" mask="url(#path-1-inside-1_0_24)"/>
<path d="M4.01787 5.81282L7.64514 12.0867H0.390602L4.01787 5.81282Z" stroke="var(--stroke-0, #D4610E)" stroke-width="0.18" mask="url(#path-1-inside-1_0_24)"/>
<path d="M17.3007 14.8371L20.928 21.1109H13.6735L17.3007 14.8371Z" stroke="var(--stroke-0, #D4610E)" stroke-width="0.18" mask="url(#path-1-inside-1_0_24)"/>
<path d="M11.0717 0.0490246L14.699 6.32287H7.44445L11.0717 0.0490246Z" stroke="var(--stroke-0, #D4610E)" stroke-width="0.18" mask="url(#path-1-inside-1_0_24)"/>
<path d="M8.24203 15.8413L11.8693 22.1151H4.61476L8.24203 15.8413Z" stroke="var(--stroke-0, #D4610E)" stroke-width="0.18" mask="url(#path-1-inside-1_0_24)"/>
<path d="M19.2197 4.1277L22.8469 10.4015H15.5924L19.2197 4.1277Z" stroke="var(--stroke-0, #D4610E)" stroke-width="0.18" mask="url(#path-1-inside-1_0_24)"/>
<path d="M3.62731 7.99248L7.25458 14.2663H4.4737e-05L3.62731 7.99248Z" stroke="var(--stroke-0, #D4610E)" stroke-width="0.18" mask="url(#path-1-inside-1_0_24)"/>
<path d="M18.8159 13.2204L22.4431 19.4942H15.1886L18.8159 13.2204Z" stroke="var(--stroke-0, #D4610E)" stroke-width="0.18" mask="url(#path-1-inside-1_0_24)"/>
<path d="M8.91965 0.582444L12.5469 6.85629H5.29238L8.91965 0.582444Z" stroke="var(--stroke-0, #D4610E)" stroke-width="0.18" mask="url(#path-1-inside-1_0_24)"/>
<path d="M10.3384 16.5628L13.9656 22.8367H6.7111L10.3384 16.5628Z" stroke="var(--stroke-0, #D4610E)" stroke-width="0.18" mask="url(#path-1-inside-1_0_24)"/>
<path d="M17.8538 2.3834L21.481 8.65725H14.2265L17.8538 2.3834Z" stroke="var(--stroke-0, #D4610E)" stroke-width="0.18" mask="url(#path-1-inside-1_0_24)"/>
<path d="M3.82313 10.1981L7.4504 16.472H0.195859L3.82313 10.1981Z" stroke="var(--stroke-0, #D4610E)" stroke-width="0.18" mask="url(#path-1-inside-1_0_24)"/>
<path d="M19.8531 11.2633L23.4804 17.5372H16.2259L19.8531 11.2633Z" stroke="var(--stroke-0, #D4610E)" stroke-width="0.18" mask="url(#path-1-inside-1_0_24)"/>
<path d="M6.98312 1.66104L10.6104 7.93488H3.35585L6.98312 1.66104Z" stroke="var(--stroke-0, #D4610E)" stroke-width="0.18" mask="url(#path-1-inside-1_0_24)"/>
<path d="M12.5508 16.7098L16.1781 22.9837H8.92358L12.5508 16.7098Z" stroke="var(--stroke-0, #D4610E)" stroke-width="0.18" mask="url(#path-1-inside-1_0_24)"/>
<path d="M16.0774 1.05809L19.7047 7.33193H12.4502L16.0774 1.05809Z" stroke="var(--stroke-0, #D4610E)" stroke-width="0.18" mask="url(#path-1-inside-1_0_24)"/>
<path d="M4.59159 12.2752L8.21886 18.549H0.964321L4.59159 12.2752Z" stroke="var(--stroke-0, #D4610E)" stroke-width="0.18" mask="url(#path-1-inside-1_0_24)"/>
<path d="M20.3399 9.10305L23.9672 15.3769H16.7126L20.3399 9.10305Z" stroke="var(--stroke-0, #D4610E)" stroke-width="0.18" mask="url(#path-1-inside-1_0_24)"/>
<path d="M5.39783 3.20923L9.0251 9.48307H1.77056L5.39783 3.20923Z" stroke="var(--stroke-0, #D4610E)" stroke-width="0.18" mask="url(#path-1-inside-1_0_24)"/>
<path d="M14.7244 16.272L18.3517 22.5459H11.0972L14.7244 16.272Z" stroke="var(--stroke-0, #D4610E)" stroke-width="0.18" mask="url(#path-1-inside-1_0_24)"/>
<path d="M14.0151 0.244618L17.6424 6.51846H10.3878L14.0151 0.244618Z" stroke="var(--stroke-0, #D4610E)" stroke-width="0.18" mask="url(#path-1-inside-1_0_24)"/>
<path d="M5.87886 14.0781L9.50613 20.3519H2.25159L5.87886 14.0781Z" stroke="var(--stroke-0, #D4610E)" stroke-width="0.18" mask="url(#path-1-inside-1_0_24)"/>
<path d="M20.242 6.89093L23.8693 13.1648H16.6147L20.242 6.89093Z" stroke="var(--stroke-0, #D4610E)" stroke-width="0.18" mask="url(#path-1-inside-1_0_24)"/>
<path d="M4.27486 5.11854L7.90213 11.3924H0.647589L4.27486 5.11854Z" stroke="var(--stroke-0, #D4610E)" stroke-width="0.18" mask="url(#path-1-inside-1_0_24)"/>
</g>
</svg>
