<svg width="94" height="37" viewBox="0 0 94 37" fill="none" xmlns="http://www.w3.org/2000/svg" aria-hidden="true">
<g filter="url(#filter0_d_221_184)">
<path d="M15.32 28.4C12.3867 28.4 9.84 27.84 7.68 26.72C5.54667 25.5733 3.89333 23.9733 2.72 21.92C1.57333 19.84 1 17.4 1 14.6C1 11.8 1.57333 9.37333 2.72 7.32C3.89333 5.24 5.54667 3.64 7.68 2.52C9.84 1.37333 12.3867 0.8 15.32 0.8C18.12 0.8 20.5333 1.24 22.56 2.12C24.6133 3 26.2 4.25333 27.32 5.88C28.44 7.50667 29 9.46667 29 11.76V12.36H22.32V11.76C22.32 10 21.7733 8.69333 20.68 7.84C19.6133 6.98667 17.8667 6.56 15.44 6.56C13.4933 6.56 11.92 6.82667 10.72 7.36C9.54667 7.86667 8.69333 8.70667 8.16 9.88C7.62667 11.0267 7.36 12.6 7.36 14.6C7.36 16.5733 7.62667 18.1467 8.16 19.32C8.69333 20.4933 9.54667 21.3467 10.72 21.88C11.92 22.3867 13.4933 22.64 15.44 22.64C17.8667 22.64 19.6133 22.2133 20.68 21.36C21.7733 20.5067 22.32 19.2 22.32 17.44V16.84H29V17.44C29 19.7067 28.44 21.6667 27.32 23.32C26.2 24.9467 24.6133 26.2 22.56 27.08C20.5333 27.96 18.12 28.4 15.32 28.4Z" fill="#D4610E"/>
<path d="M35.64 6L40.08 15.84C42.8 21.96 40.76 25.48 39.4 28L29.44 6C27.76 2.4 25.72 0.8 22.64 -1.90735e-06C31.04 -1.90735e-06 33.72 1.64 35.64 6ZM49.76 6L54.2 15.84C56.92 21.96 54.88 25.48 53.52 28L43.56 6C41.88 2.4 39.84 0.8 36.76 -1.90735e-06H52.08C49.6 0.8 48.16 2.4 49.76 6ZM55.28 -1.90735e-06H67.28C63.68 1.2 62.48 2.4 61.28 6C60.08 2.4 58.88 1.2 55.28 -1.90735e-06Z" fill="#F5F5F5"/>
<path d="M73.4241 28.4C70.7307 28.4 68.4374 28.0533 66.5441 27.36C64.6507 26.64 63.2107 25.5867 62.2241 24.2C61.2374 22.7867 60.7441 21.04 60.7441 18.96V18.72H66.7441V19.44C66.7441 20.2667 66.9174 20.9333 67.2641 21.44C67.6374 21.9467 68.3041 22.32 69.2641 22.56C70.2241 22.8 71.6107 22.92 73.4241 22.92C75.0241 22.92 76.2507 22.84 77.1041 22.68C77.9574 22.4933 78.5441 22.2133 78.8641 21.84C79.1841 21.4667 79.3441 20.9867 79.3441 20.4C79.3441 19.5733 79.0641 18.9733 78.5041 18.6C77.9707 18.2267 77.0241 17.92 75.6641 17.68L68.1441 16.6C66.5441 16.3333 65.1707 15.8933 64.0241 15.28C62.9041 14.6667 62.0374 13.8533 61.4241 12.84C60.8107 11.8 60.5041 10.5467 60.5041 9.08C60.5041 8.06667 60.7174 7.06667 61.1441 6.08C61.5974 5.09333 62.3041 4.21333 63.2641 3.44C64.2241 2.64 65.4774 2 67.0241 1.52C68.5974 1.04 70.5174 0.8 72.7841 0.8C75.5307 0.8 77.7841 1.2 79.5441 2C81.3307 2.77333 82.6641 3.88 83.5441 5.32C84.4241 6.73333 84.8641 8.37333 84.8641 10.24V10.48H78.8241V9.92C78.8241 9.06667 78.6374 8.37333 78.2641 7.84C77.9174 7.30667 77.2641 6.92 76.3041 6.68C75.3441 6.41333 73.9707 6.28 72.1841 6.28C70.7441 6.28 69.6107 6.37333 68.7841 6.56C67.9841 6.74667 67.4107 7.02666 67.0641 7.4C66.7174 7.77333 66.5441 8.25333 66.5441 8.84C66.5441 9.34667 66.6507 9.77333 66.8641 10.12C67.0774 10.44 67.4107 10.6933 67.8641 10.88C68.3174 11.0667 68.9174 11.2267 69.6641 11.36L77.1841 12.56C79.1841 12.88 80.7707 13.4 81.9441 14.12C83.1441 14.84 84.0107 15.72 84.5441 16.76C85.0774 17.7733 85.3441 18.8933 85.3441 20.12C85.3441 21.56 84.9441 22.92 84.1441 24.2C83.3441 25.4533 82.0641 26.4667 80.3041 27.24C78.5441 28.0133 76.2507 28.4 73.4241 28.4Z" fill="#413D3D"/>
</g>
<defs>
<filter id="filter0_d_221_184" x="0" y="0" width="102" height="39" filterUnits="userSpaceOnUse" color-interpolation-filters="sRGB">
<feFlood flood-opacity="0" result="BackgroundImageFix"/>
<feColorMatrix in="SourceAlpha" type="matrix" values="0 0 0 0 0 0 0 0 0 0 0 0 0 0 0 0 0 0 127 0" result="hardAlpha"/>
<feOffset dx="4" dy="4"/>
<feGaussianBlur stdDeviation="2"/>
<feComposite in2="hardAlpha" operator="out"/>
<feColorMatrix type="matrix" values="0 0 0 0 0 0 0 0 0 0 0 0 0 0 0 0 0 0 0.25 0"/>
<feBlend mode="normal" in2="BackgroundImageFix" result="effect1_dropShadow_221_184"/>
<feBlend mode="normal" in="SourceGraphic" in2="effect1_dropShadow_221_184" result="shape"/>
</filter>
</defs>
</svg>
