<svg width="7611" height="407" viewBox="0 0 7611 407" fill="none" xmlns="http://www.w3.org/2000/svg">
<path d="M0.500001 397L38.5 42C46.1667 41.6667 53.6667 41.1667 61 40.5C68.6667 39.5 76 38.3333 83 37C89.6667 35.6667 96.5 34.6666 103.5 34C110.5 33 117.333 32.3333 124 32L122.5 42C122.167 45.3333 121.5 49.1666 120.5 53.5C119.833 57.5 119.167 62.1667 118.5 67.5C116.833 79.1667 114.833 92.5 112.5 107.5C110.167 122.5 107.5 139.167 104.5 157.5C102.5 168.833 100.167 182.5 97.5 198.5C95.1667 214.5 92.3333 232.667 89 253H96.5C100.833 237.667 104.833 223.667 108.5 211C112.167 198.333 115.333 187.167 118 177.5C120.667 167.833 123.167 159.167 125.5 151.5C128.167 143.5 130.333 136.333 132 130C139 105.333 144.667 85.1667 149 69.5C153.333 53.8333 156.167 43.6667 157.5 39H162C170.667 39 179.667 38.3333 189 37C198.667 35.6667 207.333 34.1667 215 32.5C214.667 33.8333 214 39.3333 213 49C212 58.6666 210.833 70.5 209.5 84.5C208.167 98.5 206.833 113 205.5 128C203.167 156.333 201 181 199 202C197.333 223 195.833 240 194.5 253H203.5L251 38L284.5 33.5C289.167 32.8333 294 32.1666 299 31.5C304 30.8333 309.167 30.1667 314.5 29.5C324.167 28.1667 333.333 26.6667 342 25C332 53 322 86 312 124C302 162 292 200.5 282 239.5C276.667 260.833 271.333 282.5 266 304.5C261 326.167 256 348.333 251 371L138 390L160 197H154L104.5 378.5L0.500001 397ZM284.293 395.5L349.793 40L507.793 26.5C505.46 33.8333 503.46 41.3333 501.793 49C500.126 55.3333 498.46 62 496.793 69C495.46 75.6667 494.293 81.6666 493.293 87C488.96 87.3333 482.793 87.6667 474.793 88C466.793 88 458.626 88.1667 450.293 88.5C441.96 88.5 434.793 88.5 428.793 88.5C422.793 88.5 419.626 88.5 419.293 88.5L401.793 178L430.793 176.5C434.46 176.167 438.126 176 441.793 176C445.793 176 449.626 176 453.293 176C456.96 176 460.293 176 463.293 176C466.293 176 468.626 175.833 470.293 175.5C469.626 180.167 468.96 184.833 468.293 189.5C467.96 193.833 467.46 198.333 466.793 203L462.293 230.5C460.626 230.833 458.46 231 455.793 231C453.126 231 449.96 231 446.293 231C442.626 231.333 438.793 231.5 434.793 231.5C430.793 231.5 426.96 231.667 423.293 232C418.96 232.333 414.46 232.5 409.793 232.5C405.126 232.5 400.126 232.667 394.793 233L377.793 325L450.793 313.5L445.793 370.5L284.293 395.5ZM489.703 164.5L503.203 110.5C507.203 94.8333 511.37 77.6666 515.703 59C520.37 40.3333 524.536 22.6666 528.203 5.99997C531.203 6.33332 535.703 6.66666 541.703 6.99999C547.703 7.33332 553.203 7.49998 558.203 7.49998C563.203 7.49998 566.203 7.49998 567.203 7.49998C575.203 7.49998 583.703 6.83331 592.703 5.49998C602.036 3.83331 611.37 2.16665 620.703 0.499983L571.703 156L489.703 164.5ZM553.777 395.5L579.777 265.5C583.777 241.5 588.111 216.833 592.777 191.5C597.444 166.167 601.777 141.167 605.777 116.5C610.111 91.8333 613.444 68.6666 615.777 47C634.777 41 655.277 36.6666 677.277 34C699.277 31 721.111 29.5 742.777 29.5C768.111 29.5 785.277 35 794.277 46C803.611 57 808.277 71.8333 808.277 90.5C808.277 107.5 804.277 124.667 796.277 142C788.277 159 777.777 174.5 764.777 188.5C752.111 202.167 738.111 213 722.777 221C728.777 234.333 735.111 249 741.777 265C748.777 280.667 755.277 295.667 761.277 310C764.611 318.333 767.944 326.667 771.277 335C774.944 343.333 778.444 351.667 781.777 360L704.277 387L686.277 327C681.277 310.333 676.611 294.333 672.277 279C668.277 263.333 665.944 252.333 665.277 246L658.777 248C657.777 253.333 656.611 259.167 655.277 265.5C654.277 271.5 653.111 278.167 651.777 285.5C650.444 292.833 649.111 300 647.777 307C646.444 313.667 645.111 320.333 643.777 327L634.777 374.5L553.777 395.5ZM671.277 178.5C677.277 177.833 684.611 175.333 693.277 171C702.277 166.333 711.111 160.667 719.777 154C728.777 147.333 736.277 140.5 742.277 133.5C748.277 126.5 751.277 120.333 751.277 115C751.277 108.333 747.277 104 739.277 102C731.611 99.6666 721.444 98.5 708.777 98.5H697.777C695.777 98.8333 693.944 99 692.277 99C690.611 99 688.944 99 687.277 99L671.277 178.5ZM777.945 395.5L843.445 40L1001.45 26.5C999.112 33.8333 997.112 41.3333 995.445 49C993.779 55.3333 992.112 62 990.445 69C989.112 75.6667 987.945 81.6666 986.945 87C982.612 87.3333 976.445 87.6667 968.445 88C960.445 88 952.279 88.1667 943.945 88.5C935.612 88.5 928.445 88.5 922.445 88.5C916.445 88.5 913.279 88.5 912.945 88.5L895.445 178L924.445 176.5C928.112 176.167 931.779 176 935.445 176C939.445 176 943.279 176 946.945 176C950.612 176 953.945 176 956.945 176C959.945 176 962.279 175.833 963.945 175.5C963.279 180.167 962.612 184.833 961.945 189.5C961.612 193.833 961.112 198.333 960.445 203L955.945 230.5C954.279 230.833 952.112 231 949.445 231C946.779 231 943.612 231 939.945 231C936.279 231.333 932.445 231.5 928.445 231.5C924.445 231.5 920.612 231.667 916.945 232C912.612 232.333 908.112 232.5 903.445 232.5C898.779 232.5 893.779 232.667 888.445 233L871.445 325L944.445 313.5L939.445 370.5L777.945 395.5ZM1044.51 397.5C1054.51 349.5 1064.01 303 1073.01 258C1080.35 215.667 1087.51 175 1094.51 136C1101.51 97 1106.51 61.1666 1109.51 28.5C1111.85 28.8333 1113.85 29 1115.51 29C1117.51 29 1119.18 29 1120.51 29H1131.01C1139.68 29 1149.35 28.8333 1160.01 28.5C1170.68 27.8333 1180.51 27.3333 1189.51 27C1191.85 38.6666 1194.01 50.1666 1196.01 61.5C1198.35 72.8333 1200.35 83.8333 1202.01 94.5C1203.68 103.833 1205.51 113.5 1207.51 123.5C1209.51 133.167 1211.51 143 1213.51 153C1215.18 163 1216.85 172.333 1218.51 181C1220.51 189.333 1222.18 197 1223.51 204C1227.51 184.333 1231.18 165 1234.51 146C1238.18 127 1241.68 109.833 1245.01 94.5L1259.51 27.5L1320.51 20C1314.85 45.3333 1309.51 70.1667 1304.51 94.5C1299.51 118.833 1294.85 142.333 1290.51 165C1282.18 205.667 1274.85 244 1268.51 280C1262.18 316 1257.35 347.333 1254.01 374C1257.68 374 1257.01 374.5 1252.01 375.5C1247.35 376.167 1240.35 377.333 1231.01 379C1221.68 380.333 1211.68 382.167 1201.01 384.5C1190.35 386.833 1180.85 389.667 1172.51 393C1171.51 379.667 1170.51 366.667 1169.51 354C1168.51 341.333 1167.35 329 1166.01 317C1164.01 295.667 1161.68 274.5 1159.01 253.5C1156.35 232.5 1153.68 215.833 1151.01 203.5C1148.68 218.167 1145.85 235 1142.51 254C1139.18 272.667 1135.51 291.5 1131.51 310.5L1117.51 380.5L1044.51 397.5ZM1358.59 397C1336.59 397 1318.59 388.5 1304.59 371.5C1290.59 354.5 1283.59 328.833 1283.59 294.5C1283.59 275.5 1285.92 255.5 1290.59 234.5C1295.25 213.5 1301.75 192.833 1310.09 172.5C1318.42 152.167 1328.09 133.333 1339.09 116C1356.75 88 1377.09 65.1667 1400.09 47.5C1423.09 29.8333 1447.25 21 1472.59 21C1492.59 21 1507.92 26.1667 1518.59 36.5C1529.59 46.5 1537.25 59.5 1541.59 75.5C1545.92 91.1667 1548.09 107.5 1548.09 124.5C1548.09 164.167 1541.92 201.167 1529.59 235.5C1517.59 269.5 1501.92 298.333 1482.59 322C1463.25 346.333 1442.59 365 1420.59 378C1398.92 390.667 1378.25 397 1358.59 397ZM1385.59 314.5C1400.59 314.5 1413.75 309.5 1425.09 299.5C1436.75 289.5 1446.59 276.833 1454.59 261.5C1462.59 245.833 1468.59 229.5 1472.59 212.5C1476.59 195.5 1478.59 180.167 1478.59 166.5C1478.59 161.167 1478.09 155.5 1477.09 149.5C1476.09 143.167 1473.92 137.667 1470.59 133C1467.25 128.333 1462.09 126 1455.09 126C1439.75 126 1425.92 131.667 1413.59 143C1401.25 154 1390.92 168 1382.59 185C1374.25 202.333 1368.09 219.333 1364.09 236C1360.09 252.667 1358.09 267.833 1358.09 281.5C1358.09 288.5 1360.59 295.833 1365.59 303.5C1370.59 310.833 1377.25 314.5 1385.59 314.5ZM1559.67 395.5C1563.33 377.167 1567 359 1570.67 341C1574.67 322.667 1578.33 304.667 1581.67 287C1594.33 223.667 1604.67 163 1612.67 105C1609 104.333 1605.17 104 1601.17 104C1597.17 103.667 1593.33 103.667 1589.67 104C1581.67 104.667 1573.83 103.667 1566.17 101C1566.5 98.3333 1566.67 95.5 1566.67 92.5C1566.67 89.1667 1566.67 85.8333 1566.67 82.5C1566.67 78.8333 1566.67 75.3333 1566.67 72C1566.67 68.3333 1566.83 64.8333 1567.17 61.5C1567.5 57.8333 1567.67 54 1567.67 50C1567.67 45.6667 1567.83 41.3333 1568.17 37C1576.83 37.6666 1585.5 38.1666 1594.17 38.5C1602.83 38.8333 1611.5 39 1620.17 39C1644.83 39 1668.33 38.1667 1690.67 36.5C1713.33 34.8333 1734.17 32.8333 1753.17 30.5L1747.67 57.5L1743.17 81C1741.5 89.6666 1740 96.5 1738.67 101.5C1735 102.5 1731.33 103.333 1727.67 104C1724 104.667 1720.33 105.167 1716.67 105.5C1713 105.833 1709.17 106.333 1705.17 107C1701.5 107.667 1697.83 108.333 1694.17 109C1689.17 133.667 1685 155 1681.67 173C1678.67 191 1675.83 208.333 1673.17 225C1670.83 241.333 1668 259.333 1664.67 279C1659 312.667 1654 346.833 1649.67 381.5L1559.67 395.5ZM1845.98 395.5C1836.64 395.5 1826.48 393.5 1815.48 389.5C1804.81 385.5 1792.98 378.667 1779.98 369L1814.48 292C1816.14 295.333 1819.31 298.333 1823.98 301C1828.98 303.333 1834.31 304.5 1839.98 304.5C1844.31 304.5 1848.14 301 1851.48 294C1854.81 287 1857.48 278.5 1859.48 268.5C1861.81 258.5 1863.64 249.167 1864.98 240.5C1866.31 231.5 1867.14 225.167 1867.48 221.5C1870.81 205.167 1873.98 189 1876.98 173C1879.98 157 1882.81 140.833 1885.48 124.5C1888.14 108.5 1891.14 92.5 1894.48 76.5C1898.14 60.5 1901.81 44.5 1905.48 28.5C1920.48 27.1666 1935.14 25.1666 1949.48 22.5C1964.14 19.5 1978.81 16 1993.48 12C1988.48 29 1983.31 48.3333 1977.98 70C1972.64 91.3333 1967.48 113.5 1962.48 136.5C1957.48 159.5 1952.64 181.833 1947.98 203.5C1943.64 225.167 1939.81 244.667 1936.48 262C1933.48 276 1929.81 290.833 1925.48 306.5C1921.14 321.833 1915.48 336.333 1908.48 350C1901.48 363.333 1892.81 374.333 1882.48 383C1872.48 391.333 1860.31 395.5 1845.98 395.5ZM2015.63 404C2005.63 404 1995.46 401.833 1985.13 397.5C1974.79 393.167 1966.13 386.5 1959.13 377.5C1952.13 368.5 1948.63 357 1948.63 343V339C1948.63 337.333 1948.79 336 1949.13 335C1950.13 326.333 1951.46 315 1953.13 301C1955.13 287 1957.46 271.833 1960.13 255.5C1962.79 238.833 1965.46 222.333 1968.13 206C1971.13 189.667 1973.79 174.833 1976.13 161.5C1981.13 134.833 1985.13 113.333 1988.13 97C1991.13 80.6667 1993.46 68.1667 1995.13 59.5C1997.13 50.5 1998.63 43.8333 1999.63 39.5C2003.29 39.1667 2007.13 38.8333 2011.13 38.5C2015.46 37.8333 2019.96 37.3333 2024.63 37C2029.29 36.3333 2033.79 35.8333 2038.13 35.5C2042.79 35.1667 2047.29 34.8333 2051.63 34.5L2082.13 31.5C2077.79 51.8333 2073.63 71.1667 2069.63 89.5C2065.96 107.5 2062.46 124.667 2059.13 141L2036.13 251.5C2034.13 259.833 2032.63 266.833 2031.63 272.5C2030.29 277.833 2028.79 284.667 2027.13 293C2025.79 301 2025.13 308.333 2025.13 315C2025.13 320.333 2026.46 324.833 2029.13 328.5C2031.79 331.833 2035.13 333.5 2039.13 333.5C2044.79 333.5 2049.46 331.333 2053.13 327C2056.79 322.667 2059.79 317.333 2062.13 311C2064.46 304.667 2066.29 298.333 2067.63 292C2068.96 285.333 2070.13 280 2071.13 276C2074.46 260.667 2077.46 245.833 2080.12 231.5C2083.13 216.833 2086.13 201.333 2089.13 185C2092.46 168.667 2096.13 149.833 2100.13 128.5C2102.79 113.833 2105.46 99 2108.13 84C2111.13 68.6666 2113.96 53.1666 2116.63 37.5L2192.63 32.5C2192.63 32.5 2191.13 40.5 2188.13 56.5C2185.13 72.5 2180.79 96.6667 2175.13 129C2172.79 141.333 2170.13 155.167 2167.13 170.5C2164.46 185.833 2161.46 201.333 2158.13 217C2154.79 232.667 2151.63 247.5 2148.63 261.5C2145.96 275.5 2143.46 287.5 2141.13 297.5C2134.46 324.833 2124.13 346.333 2110.13 362C2096.13 377.333 2080.63 388.167 2063.63 394.5C2046.96 400.833 2030.96 404 2015.63 404ZM2228.1 396C2214.76 396 2201.43 392.5 2188.1 385.5C2174.76 378.167 2161.93 366.667 2149.6 351L2186.6 278.5C2190.26 284.833 2195.6 290.833 2202.6 296.5C2209.93 302.167 2217.6 306.667 2225.6 310C2233.6 313.333 2240.43 315 2246.1 315C2254.76 315 2262.93 312.333 2270.6 307C2278.6 301.667 2282.6 294.5 2282.6 285.5C2282.6 273.833 2277.26 263.167 2266.6 253.5C2255.93 243.833 2243.93 234.333 2230.6 225C2217.6 215.667 2205.6 205.167 2194.6 193.5C2183.93 181.5 2178.6 167.833 2178.6 152.5C2178.6 135.167 2183.6 119.167 2193.6 104.5C2203.6 89.5 2216.6 76.5 2232.6 65.5C2248.6 54.1667 2265.6 45.5 2283.6 39.5C2301.93 33.1667 2319.26 30 2335.6 30C2347.26 30 2358.1 32 2368.1 36C2378.1 39.6667 2386.1 45.8333 2392.1 54.5C2398.1 63.1666 2401.1 74.8333 2401.1 89.5C2401.1 91.8333 2400.93 94.1667 2400.6 96.5C2400.6 98.8333 2400.43 101.167 2400.1 103.5C2399.76 105.833 2399.26 108.333 2398.6 111C2398.26 113.333 2397.93 115.833 2397.6 118.5L2325.1 139.5C2325.76 136.833 2326.26 134.167 2326.6 131.5C2327.26 128.833 2327.6 126.167 2327.6 123.5C2327.6 113.5 2325.76 106.333 2322.1 102C2318.76 97.3333 2314.26 95 2308.6 95C2305.6 95 2301.26 96.6667 2295.6 100C2289.93 103 2284.76 107.333 2280.1 113C2275.76 118.333 2273.6 124.333 2273.6 131C2273.6 142 2278.1 151.167 2287.1 158.5C2296.43 165.5 2307.1 172.667 2319.1 180C2324.76 183.333 2331.1 188.667 2338.1 196C2345.1 203 2351.1 212.667 2356.1 225C2361.43 237 2364.1 252.5 2364.1 271.5C2364.1 296.167 2357.93 317.833 2345.6 336.5C2333.6 355.167 2317.26 369.833 2296.6 380.5C2275.93 390.833 2253.1 396 2228.1 396ZM2402.44 395.5C2406.11 377.167 2409.77 359 2413.44 341C2417.44 322.667 2421.11 304.667 2424.44 287C2437.11 223.667 2447.44 163 2455.44 105C2451.77 104.333 2447.94 104 2443.94 104C2439.94 103.667 2436.11 103.667 2432.44 104C2424.44 104.667 2416.61 103.667 2408.94 101C2409.27 98.3333 2409.44 95.5 2409.44 92.5C2409.44 89.1667 2409.44 85.8333 2409.44 82.5C2409.44 78.8333 2409.44 75.3333 2409.44 72C2409.44 68.3333 2409.61 64.8333 2409.94 61.5C2410.27 57.8333 2410.44 54 2410.44 50C2410.44 45.6667 2410.61 41.3333 2410.94 37C2419.61 37.6666 2428.27 38.1666 2436.94 38.5C2445.61 38.8333 2454.27 39 2462.94 39C2487.61 39 2511.11 38.1667 2533.44 36.5C2556.11 34.8333 2576.94 32.8333 2595.94 30.5L2590.44 57.5L2585.94 81C2584.27 89.6666 2582.77 96.5 2581.44 101.5C2577.77 102.5 2574.11 103.333 2570.44 104C2566.77 104.667 2563.11 105.167 2559.44 105.5C2555.77 105.833 2551.94 106.333 2547.94 107C2544.27 107.667 2540.61 108.333 2536.94 109C2531.94 133.667 2527.77 155 2524.44 173C2521.44 191 2518.61 208.333 2515.94 225C2513.61 241.333 2510.77 259.333 2507.44 279C2501.77 312.667 2496.77 346.833 2492.44 381.5L2402.44 395.5ZM2765.75 394C2766.42 388.333 2767.08 382.833 2767.75 377.5C2768.42 372.167 2769.08 366.833 2769.75 361.5L2772.75 333.5C2773.08 328.833 2773.42 324.5 2773.75 320.5C2774.08 316.5 2774.42 312.833 2774.75 309.5H2731.25L2711.25 381.5C2703.92 382.5 2695.25 383.667 2685.25 385C2675.25 386 2665.92 387 2657.25 388C2651.92 388.667 2646.58 389.333 2641.25 390C2636.25 390.667 2631.08 391.333 2625.75 392L2665.25 261C2669.92 245.333 2675.25 227.5 2681.25 207.5C2687.25 187.5 2693.25 167 2699.25 146C2705.58 125 2711.42 105.333 2716.75 87C2722.42 68.3333 2726.92 52.6666 2730.25 40C2752.92 38.3333 2775.92 36.3333 2799.25 34C2822.92 31.6666 2845.92 28.5 2868.25 24.5C2866.58 43.1666 2864.92 64.3333 2863.25 88C2861.92 111.333 2860.58 135.5 2859.25 160.5C2858.25 185.5 2857.08 210.167 2855.75 234.5C2855.08 257.5 2854.25 281.333 2853.25 306C2852.25 330.333 2851.25 355.333 2850.25 381C2845.25 381.667 2840.25 382.333 2835.25 383C2830.25 383.667 2825.25 384.333 2820.25 385C2811.92 386.333 2802.75 387.833 2792.75 389.5C2782.75 391.167 2773.75 392.667 2765.75 394ZM2743.25 259.5C2745.25 259.5 2748.92 259.333 2754.25 259C2759.92 258.667 2765.25 258.333 2770.25 258C2775.25 257.667 2778.25 257.5 2779.25 257.5C2779.25 253.167 2779.92 244.333 2781.25 231C2782.58 217.667 2783.92 203.667 2785.25 189C2785.92 180.333 2786.58 171.5 2787.25 162.5C2788.25 153.167 2789.25 143.667 2790.25 134L2793.25 90.5L2785.75 91L2774.25 134L2743.25 259.5ZM2855.06 397.5C2865.06 349.5 2874.56 303 2883.56 258C2890.89 215.667 2898.06 175 2905.06 136C2912.06 97 2917.06 61.1666 2920.06 28.5C2922.39 28.8333 2924.39 29 2926.06 29C2928.06 29 2929.73 29 2931.06 29H2941.56C2950.23 29 2959.89 28.8333 2970.56 28.5C2981.23 27.8333 2991.06 27.3333 3000.06 27C3002.39 38.6666 3004.56 50.1666 3006.56 61.5C3008.89 72.8333 3010.89 83.8333 3012.56 94.5C3014.23 103.833 3016.06 113.5 3018.06 123.5C3020.06 133.167 3022.06 143 3024.06 153C3025.73 163 3027.39 172.333 3029.06 181C3031.06 189.333 3032.73 197 3034.06 204C3038.06 184.333 3041.73 165 3045.06 146C3048.73 127 3052.23 109.833 3055.56 94.5L3070.06 27.5L3131.06 20C3125.39 45.3333 3120.06 70.1667 3115.06 94.5C3110.06 118.833 3105.39 142.333 3101.06 165C3092.73 205.667 3085.39 244 3079.06 280C3072.73 316 3067.89 347.333 3064.56 374C3068.23 374 3067.56 374.5 3062.56 375.5C3057.89 376.167 3050.89 377.333 3041.56 379C3032.23 380.333 3022.23 382.167 3011.56 384.5C3000.89 386.833 2991.39 389.667 2983.06 393C2982.06 379.667 2981.06 366.667 2980.06 354C2979.06 341.333 2977.89 329 2976.56 317C2974.56 295.667 2972.23 274.5 2969.56 253.5C2966.89 232.5 2964.23 215.833 2961.56 203.5C2959.23 218.167 2956.39 235 2953.06 254C2949.73 272.667 2946.06 291.5 2942.06 310.5L2928.06 380.5L2855.06 397.5ZM3169.13 397C3147.13 397 3129.13 388.5 3115.13 371.5C3101.13 354.5 3094.13 328.833 3094.13 294.5C3094.13 275.5 3096.47 255.5 3101.13 234.5C3105.8 213.5 3112.3 192.833 3120.63 172.5C3128.97 152.167 3138.63 133.333 3149.63 116C3167.3 88 3187.63 65.1667 3210.63 47.5C3233.63 29.8333 3257.8 21 3283.13 21C3303.13 21 3318.47 26.1667 3329.13 36.5C3340.13 46.5 3347.8 59.5 3352.13 75.5C3356.47 91.1667 3358.63 107.5 3358.63 124.5C3358.63 164.167 3352.47 201.167 3340.13 235.5C3328.13 269.5 3312.47 298.333 3293.13 322C3273.8 346.333 3253.13 365 3231.13 378C3209.47 390.667 3188.8 397 3169.13 397ZM3196.13 314.5C3211.13 314.5 3224.3 309.5 3235.63 299.5C3247.3 289.5 3257.13 276.833 3265.13 261.5C3273.13 245.833 3279.13 229.5 3283.13 212.5C3287.13 195.5 3289.13 180.167 3289.13 166.5C3289.13 161.167 3288.63 155.5 3287.63 149.5C3286.63 143.167 3284.47 137.667 3281.13 133C3277.8 128.333 3272.63 126 3265.63 126C3250.3 126 3236.47 131.667 3224.13 143C3211.8 154 3201.47 168 3193.13 185C3184.8 202.333 3178.63 219.333 3174.63 236C3170.63 252.667 3168.63 267.833 3168.63 281.5C3168.63 288.5 3171.13 295.833 3176.13 303.5C3181.13 310.833 3187.8 314.5 3196.13 314.5ZM3370.21 395.5C3373.88 377.167 3377.55 359 3381.21 341C3385.21 322.667 3388.88 304.667 3392.21 287C3404.88 223.667 3415.21 163 3423.21 105C3419.55 104.333 3415.71 104 3411.71 104C3407.71 103.667 3403.88 103.667 3400.21 104C3392.21 104.667 3384.38 103.667 3376.71 101C3377.05 98.3333 3377.21 95.5 3377.21 92.5C3377.21 89.1667 3377.21 85.8333 3377.21 82.5C3377.21 78.8333 3377.21 75.3333 3377.21 72C3377.21 68.3333 3377.38 64.8333 3377.71 61.5C3378.05 57.8333 3378.21 54 3378.21 50C3378.21 45.6667 3378.38 41.3333 3378.71 37C3387.38 37.6666 3396.05 38.1666 3404.71 38.5C3413.38 38.8333 3422.05 39 3430.71 39C3455.38 39 3478.88 38.1667 3501.21 36.5C3523.88 34.8333 3544.71 32.8333 3563.71 30.5L3558.21 57.5L3553.71 81C3552.05 89.6666 3550.55 96.5 3549.21 101.5C3545.55 102.5 3541.88 103.333 3538.21 104C3534.55 104.667 3530.88 105.167 3527.21 105.5C3523.55 105.833 3519.71 106.333 3515.71 107C3512.05 107.667 3508.38 108.333 3504.71 109C3499.71 133.667 3495.55 155 3492.21 173C3489.21 191 3486.38 208.333 3483.71 225C3481.38 241.333 3478.55 259.333 3475.21 279C3469.55 312.667 3464.55 346.833 3460.21 381.5L3370.21 395.5ZM3510.37 396C3520.03 349.333 3529.03 303.833 3537.37 259.5C3542.03 232.5 3546.7 205.167 3551.37 177.5C3556.37 149.833 3560.87 123.333 3564.87 98C3568.87 72.6667 3571.87 50 3573.87 30C3582.87 30.3333 3590.2 30.8333 3595.87 31.5C3601.87 31.8333 3607.37 32.1667 3612.37 32.5C3617.7 32.8333 3623.53 33.1666 3629.87 33.5C3636.53 33.5 3644.87 33.5 3654.87 33.5C3649.2 57.1667 3643.53 80.8333 3637.87 104.5C3632.53 128.167 3627.53 152 3622.87 176L3672.37 170.5C3674.7 158.833 3676.87 147.333 3678.87 136C3681.2 124.333 3683.2 112.833 3684.87 101.5C3686.53 90.5 3688.53 79.3333 3690.87 68C3693.53 56.3333 3696.37 44.6667 3699.37 33C3711.37 31 3723.53 29.5 3735.87 28.5C3748.2 27.1666 3758.53 26.3333 3766.87 26C3775.2 25.3333 3779.37 25 3779.37 25C3775.03 38.3333 3770.7 54 3766.37 72C3762.03 90 3757.87 109 3753.87 129C3749.87 149 3746.03 169 3742.37 189C3738.7 208.667 3735.37 227 3732.37 244C3728.7 265.333 3725.2 286.833 3721.87 308.5C3718.53 329.833 3715.2 351.667 3711.87 374L3633.87 383C3636.2 373 3638.2 363.167 3639.87 353.5C3641.87 343.5 3643.7 333.833 3645.37 324.5C3648.7 308.5 3652.03 291.833 3655.37 274.5C3659.03 257.167 3661.87 242.333 3663.87 230L3615.37 234.5C3614.03 240.833 3612.7 247.667 3611.37 255C3610.37 262.333 3609.03 270.167 3607.37 278.5C3605.7 286.833 3604.03 295 3602.37 303C3601.03 310.667 3599.7 318.333 3598.37 326C3596.7 335 3594.87 344 3592.87 353C3590.87 362 3589.03 371 3587.37 380L3510.37 396ZM3731.07 395.5L3796.57 40L3954.57 26.5C3952.24 33.8333 3950.24 41.3333 3948.57 49C3946.9 55.3333 3945.24 62 3943.57 69C3942.24 75.6667 3941.07 81.6666 3940.07 87C3935.74 87.3333 3929.57 87.6667 3921.57 88C3913.57 88 3905.4 88.1667 3897.07 88.5C3888.74 88.5 3881.57 88.5 3875.57 88.5C3869.57 88.5 3866.4 88.5 3866.07 88.5L3848.57 178L3877.57 176.5C3881.24 176.167 3884.9 176 3888.57 176C3892.57 176 3896.4 176 3900.07 176C3903.74 176 3907.07 176 3910.07 176C3913.07 176 3915.4 175.833 3917.07 175.5C3916.4 180.167 3915.74 184.833 3915.07 189.5C3914.74 193.833 3914.24 198.333 3913.57 203L3909.07 230.5C3907.4 230.833 3905.24 231 3902.57 231C3899.9 231 3896.74 231 3893.07 231C3889.4 231.333 3885.57 231.5 3881.57 231.5C3877.57 231.5 3873.74 231.667 3870.07 232C3865.74 232.333 3861.24 232.5 3856.57 232.5C3851.9 232.5 3846.9 232.667 3841.57 233L3824.57 325L3897.57 313.5L3892.57 370.5L3731.07 395.5ZM3899.48 395.5L3925.48 265.5C3929.48 241.5 3933.81 216.833 3938.48 191.5C3943.15 166.167 3947.48 141.167 3951.48 116.5C3955.81 91.8333 3959.15 68.6666 3961.48 47C3980.48 41 4000.98 36.6666 4022.98 34C4044.98 31 4066.81 29.5 4088.48 29.5C4113.81 29.5 4130.98 35 4139.98 46C4149.31 57 4153.98 71.8333 4153.98 90.5C4153.98 107.5 4149.98 124.667 4141.98 142C4133.98 159 4123.48 174.5 4110.48 188.5C4097.81 202.167 4083.81 213 4068.48 221C4074.48 234.333 4080.81 249 4087.48 265C4094.48 280.667 4100.98 295.667 4106.98 310C4110.31 318.333 4113.65 326.667 4116.98 335C4120.65 343.333 4124.15 351.667 4127.48 360L4049.98 387L4031.98 327C4026.98 310.333 4022.31 294.333 4017.98 279C4013.98 263.333 4011.65 252.333 4010.98 246L4004.48 248C4003.48 253.333 4002.31 259.167 4000.98 265.5C3999.98 271.5 3998.81 278.167 3997.48 285.5C3996.15 292.833 3994.81 300 3993.48 307C3992.15 313.667 3990.81 320.333 3989.48 327L3980.48 374.5L3899.48 395.5ZM4016.98 178.5C4022.98 177.833 4030.31 175.333 4038.98 171C4047.98 166.333 4056.81 160.667 4065.48 154C4074.48 147.333 4081.98 140.5 4087.98 133.5C4093.98 126.5 4096.98 120.333 4096.98 115C4096.98 108.333 4092.98 104 4084.98 102C4077.31 99.6666 4067.15 98.5 4054.48 98.5H4043.48C4041.48 98.8333 4039.65 99 4037.98 99C4036.31 99 4034.65 99 4032.98 99L4016.98 178.5ZM4237.8 397L4275.8 42C4283.47 41.6667 4290.97 41.1667 4298.3 40.5C4305.97 39.5 4313.3 38.3333 4320.3 37C4326.97 35.6667 4333.8 34.6666 4340.8 34C4347.8 33 4354.64 32.3333 4361.3 32L4359.8 42C4359.47 45.3333 4358.8 49.1666 4357.8 53.5C4357.14 57.5 4356.47 62.1667 4355.8 67.5C4354.14 79.1667 4352.14 92.5 4349.8 107.5C4347.47 122.5 4344.8 139.167 4341.8 157.5C4339.8 168.833 4337.47 182.5 4334.8 198.5C4332.47 214.5 4329.64 232.667 4326.3 253H4333.8C4338.14 237.667 4342.14 223.667 4345.8 211C4349.47 198.333 4352.64 187.167 4355.3 177.5C4357.97 167.833 4360.47 159.167 4362.8 151.5C4365.47 143.5 4367.64 136.333 4369.3 130C4376.3 105.333 4381.97 85.1667 4386.3 69.5C4390.64 53.8333 4393.47 43.6667 4394.8 39H4399.3C4407.97 39 4416.97 38.3333 4426.3 37C4435.97 35.6667 4444.64 34.1667 4452.3 32.5C4451.97 33.8333 4451.3 39.3333 4450.3 49C4449.3 58.6666 4448.14 70.5 4446.8 84.5C4445.47 98.5 4444.14 113 4442.8 128C4440.47 156.333 4438.3 181 4436.3 202C4434.64 223 4433.14 240 4431.8 253H4440.8L4488.3 38L4521.8 33.5C4526.47 32.8333 4531.3 32.1666 4536.3 31.5C4541.3 30.8333 4546.47 30.1667 4551.8 29.5C4561.47 28.1667 4570.64 26.6667 4579.3 25C4569.3 53 4559.3 86 4549.3 124C4539.3 162 4529.3 200.5 4519.3 239.5C4513.97 260.833 4508.64 282.5 4503.3 304.5C4498.3 326.167 4493.3 348.333 4488.3 371L4375.3 390L4397.3 197H4391.3L4341.8 378.5L4237.8 397ZM4521.6 395.5L4587.1 40L4745.1 26.5C4742.76 33.8333 4740.76 41.3333 4739.1 49C4737.43 55.3333 4735.76 62 4734.1 69C4732.76 75.6667 4731.6 81.6666 4730.6 87C4726.26 87.3333 4720.1 87.6667 4712.1 88C4704.1 88 4695.93 88.1667 4687.6 88.5C4679.26 88.5 4672.1 88.5 4666.1 88.5C4660.1 88.5 4656.93 88.5 4656.6 88.5L4639.1 178L4668.1 176.5C4671.76 176.167 4675.43 176 4679.1 176C4683.1 176 4686.93 176 4690.6 176C4694.26 176 4697.6 176 4700.6 176C4703.6 176 4705.93 175.833 4707.6 175.5C4706.93 180.167 4706.26 184.833 4705.6 189.5C4705.26 193.833 4704.76 198.333 4704.1 203L4699.6 230.5C4697.93 230.833 4695.76 231 4693.1 231C4690.43 231 4687.26 231 4683.6 231C4679.93 231.333 4676.1 231.5 4672.1 231.5C4668.1 231.5 4664.26 231.667 4660.6 232C4656.26 232.333 4651.76 232.5 4647.1 232.5C4642.43 232.5 4637.43 232.667 4632.1 233L4615.1 325L4688.1 313.5L4683.1 370.5L4521.6 395.5ZM4722.01 397C4709.67 397 4698.17 396 4687.51 394C4703.51 335.667 4716.17 277 4725.51 218C4735.17 158.667 4744.34 99 4753.01 39C4770.34 35.3333 4788.34 32.1666 4807.01 29.5C4825.67 26.5 4845.01 25 4865.01 25C4876.01 25 4887.67 27 4900.01 31C4912.34 34.6667 4922.67 41.5 4931.01 51.5C4939.67 61.1666 4944.01 75 4944.01 93C4944.01 109.667 4940.51 125 4933.51 139C4926.51 153 4917.67 165 4907.01 175C4896.34 185 4885.34 192.167 4874.01 196.5C4878.67 198.833 4884.17 203 4890.51 209C4896.84 215 4902.34 223 4907.01 233C4911.67 243 4914.01 255.167 4914.01 269.5C4914.01 289.5 4908.01 307.667 4896.01 324C4884.34 340 4868.67 353.333 4849.01 364C4830.01 374.667 4809.51 382.833 4787.51 388.5C4765.51 394.167 4743.67 397 4722.01 397ZM4811.01 155.5C4821.34 153.5 4831.17 150.833 4840.51 147.5C4849.84 144.167 4857.34 140.333 4863.01 136C4869.01 131.667 4872.01 127 4872.01 122C4872.01 115.667 4869.51 110.667 4864.51 107C4859.51 103.333 4853.51 100.667 4846.51 99C4839.51 97.3333 4833.01 96.5 4827.01 96.5H4822.01C4819.67 109.833 4817.51 121.5 4815.51 131.5C4813.51 141.167 4812.01 149.167 4811.01 155.5ZM4785.51 296C4792.17 295.333 4799.51 294.167 4807.51 292.5C4815.51 290.833 4823.17 288.333 4830.51 285C4837.84 281.333 4843.84 276.667 4848.51 271C4853.51 265 4856.01 257.833 4856.01 249.5C4856.01 241.5 4853.34 235.167 4848.01 230.5C4842.67 225.833 4836.17 222.5 4828.51 220.5C4821.17 218.167 4814.17 217 4807.51 217H4803.51C4801.84 217 4800.51 217.167 4799.51 217.5C4797.51 229.833 4795.17 242.833 4792.51 256.5C4789.84 270.167 4787.51 283.333 4785.51 296ZM5029.53 397.5C5024.86 397.5 5020.2 397.167 5015.53 396.5C5010.86 396.167 5006.2 395.667 5001.53 395L5028.03 260.5C5031.36 242.167 5034.86 222.833 5038.53 202.5C5042.53 181.833 5046.36 161.5 5050.03 141.5C5053.7 121.167 5056.86 102.333 5059.53 85C5062.53 67.6666 5064.86 53 5066.53 41C5080.86 38.3333 5095.36 35.8333 5110.03 33.5C5124.7 31.1667 5139.7 30 5155.03 30C5179.7 30 5199.2 35.1667 5213.53 45.5C5227.86 55.5 5238.2 68.8333 5244.53 85.5C5250.86 101.833 5254.03 119.833 5254.03 139.5C5254.03 157.167 5251.53 175.833 5246.53 195.5C5241.53 214.833 5234.36 234.167 5225.03 253.5C5216.03 272.5 5205.2 290.5 5192.53 307.5C5172.86 333.833 5148.86 355.5 5120.53 372.5C5092.53 389.167 5062.2 397.5 5029.53 397.5ZM5089.03 334.5C5100.7 326.833 5111.7 315.167 5122.03 299.5C5132.7 283.833 5142.7 265 5152.03 243C5160.36 222.667 5166.86 203.5 5171.53 185.5C5176.2 167.167 5178.53 152 5178.53 140C5178.53 127.667 5175.03 118 5168.03 111C5161.36 104 5150.7 100.5 5136.03 100.5C5130.7 129.167 5125.2 155.667 5119.53 180C5114.2 204.333 5108.86 228.833 5103.53 253.5C5098.53 278.167 5093.7 305.167 5089.03 334.5ZM5224.23 395.5L5289.73 40L5447.73 26.5C5445.4 33.8333 5443.4 41.3333 5441.73 49C5440.07 55.3333 5438.4 62 5436.73 69C5435.4 75.6667 5434.23 81.6666 5433.23 87C5428.9 87.3333 5422.73 87.6667 5414.73 88C5406.73 88 5398.57 88.1667 5390.23 88.5C5381.9 88.5 5374.73 88.5 5368.73 88.5C5362.73 88.5 5359.57 88.5 5359.23 88.5L5341.73 178L5370.73 176.5C5374.4 176.167 5378.07 176 5381.73 176C5385.73 176 5389.57 176 5393.23 176C5396.9 176 5400.23 176 5403.23 176C5406.23 176 5408.57 175.833 5410.23 175.5C5409.57 180.167 5408.9 184.833 5408.23 189.5C5407.9 193.833 5407.4 198.333 5406.73 203L5402.23 230.5C5400.57 230.833 5398.4 231 5395.73 231C5393.07 231 5389.9 231 5386.23 231C5382.57 231.333 5378.73 231.5 5374.73 231.5C5370.73 231.5 5366.9 231.667 5363.23 232C5358.9 232.333 5354.4 232.5 5349.73 232.5C5345.07 232.5 5340.07 232.667 5334.73 233L5317.73 325L5390.73 313.5L5385.73 370.5L5224.23 395.5ZM5476.14 396C5462.81 396 5449.48 392.5 5436.14 385.5C5422.81 378.167 5409.98 366.667 5397.64 351L5434.64 278.5C5438.31 284.833 5443.64 290.833 5450.64 296.5C5457.98 302.167 5465.64 306.667 5473.64 310C5481.64 313.333 5488.48 315 5494.14 315C5502.81 315 5510.98 312.333 5518.64 307C5526.64 301.667 5530.64 294.5 5530.64 285.5C5530.64 273.833 5525.31 263.167 5514.64 253.5C5503.98 243.833 5491.98 234.333 5478.64 225C5465.64 215.667 5453.64 205.167 5442.64 193.5C5431.98 181.5 5426.64 167.833 5426.64 152.5C5426.64 135.167 5431.64 119.167 5441.64 104.5C5451.64 89.5 5464.64 76.5 5480.64 65.5C5496.64 54.1667 5513.64 45.5 5531.64 39.5C5549.98 33.1667 5567.31 30 5583.64 30C5595.31 30 5606.14 32 5616.14 36C5626.14 39.6667 5634.14 45.8333 5640.14 54.5C5646.14 63.1666 5649.14 74.8333 5649.14 89.5C5649.14 91.8333 5648.98 94.1667 5648.64 96.5C5648.64 98.8333 5648.48 101.167 5648.14 103.5C5647.81 105.833 5647.31 108.333 5646.64 111C5646.31 113.333 5645.98 115.833 5645.64 118.5L5573.14 139.5C5573.81 136.833 5574.31 134.167 5574.64 131.5C5575.31 128.833 5575.64 126.167 5575.64 123.5C5575.64 113.5 5573.81 106.333 5570.14 102C5566.81 97.3333 5562.31 95 5556.64 95C5553.64 95 5549.31 96.6667 5543.64 100C5537.98 103 5532.81 107.333 5528.14 113C5523.81 118.333 5521.64 124.333 5521.64 131C5521.64 142 5526.14 151.167 5535.14 158.5C5544.48 165.5 5555.14 172.667 5567.14 180C5572.81 183.333 5579.14 188.667 5586.14 196C5593.14 203 5599.14 212.667 5604.14 225C5609.48 237 5612.14 252.5 5612.14 271.5C5612.14 296.167 5605.98 317.833 5593.64 336.5C5581.64 355.167 5565.31 369.833 5544.64 380.5C5523.98 390.833 5501.14 396 5476.14 396ZM5607.99 394.5C5612.65 375.167 5617.32 353.333 5621.99 329C5626.65 304.333 5631.32 278.833 5635.99 252.5C5640.65 226.167 5644.99 200.833 5648.99 176.5C5652.65 155.167 5656.15 133.5 5659.49 111.5C5663.15 89.5 5666.65 67.3333 5669.99 45L5747.99 32.5L5725.49 164C5720.49 195 5715.99 222.833 5711.99 247.5C5708.32 272.167 5704.65 295.5 5700.99 317.5C5697.65 339.5 5694.15 362 5690.49 385C5684.15 385 5676.49 385.5 5667.49 386.5C5658.49 387.167 5649.49 388.167 5640.49 389.5C5631.49 390.5 5623.82 391.5 5617.49 392.5C5611.49 393.5 5608.32 394.167 5607.99 394.5ZM5818.06 407C5805.73 407 5793.9 404.333 5782.56 399C5771.56 393.667 5762.06 385.5 5754.06 374.5C5745.73 363.833 5739.23 350.333 5734.56 334C5729.9 317.667 5727.56 298.5 5727.56 276.5C5727.56 233.5 5733.73 196 5746.06 164C5758.4 132 5774.06 105.333 5793.06 84C5811.73 62.6666 5831.73 46.8333 5853.06 36.5C5874.73 26.1667 5894.9 21 5913.56 21C5931.56 21 5946.23 25 5957.56 33C5968.9 40.6666 5977.23 51 5982.56 64C5987.9 77 5990.56 91.5 5990.56 107.5L5922.06 120.5C5919.06 107.167 5915.06 97.6667 5910.06 92C5905.06 86.3333 5899.4 83.5 5893.06 83.5C5885.73 83.5 5878.06 87.5 5870.06 95.5C5862.4 103.5 5854.73 114.333 5847.06 128C5839.73 141.333 5833.06 156.333 5827.06 173C5821.06 189.667 5816.06 206.833 5812.06 224.5C5808.4 242.167 5806.23 258.833 5805.56 274.5C5805.56 295.167 5808.56 310 5814.56 319C5820.9 327.667 5828.9 332 5838.56 332C5847.9 332 5857.06 329 5866.06 323C5875.4 317 5883.06 309 5889.06 299C5895.4 288.667 5898.73 277.167 5899.06 264.5L5845.56 272.5L5855.06 223L5901.06 217C5913.73 215.333 5927.06 213.333 5941.06 211C5955.4 208.667 5967.9 206.5 5978.56 204.5C5976.23 238.5 5969.56 268.333 5958.56 294C5947.9 319.333 5934.56 340.333 5918.56 357C5902.56 373.667 5885.73 386.167 5868.06 394.5C5850.73 402.833 5834.06 407 5818.06 407ZM5958.57 397.5C5968.57 349.5 5978.07 303 5987.07 258C5994.41 215.667 6001.57 175 6008.57 136C6015.57 97 6020.57 61.1666 6023.57 28.5C6025.91 28.8333 6027.91 29 6029.57 29C6031.57 29 6033.24 29 6034.57 29H6045.07C6053.74 29 6063.41 28.8333 6074.07 28.5C6084.74 27.8333 6094.57 27.3333 6103.57 27C6105.91 38.6666 6108.07 50.1666 6110.07 61.5C6112.41 72.8333 6114.41 83.8333 6116.07 94.5C6117.74 103.833 6119.57 113.5 6121.57 123.5C6123.57 133.167 6125.57 143 6127.57 153C6129.24 163 6130.91 172.333 6132.57 181C6134.57 189.333 6136.24 197 6137.57 204C6141.57 184.333 6145.24 165 6148.57 146C6152.24 127 6155.74 109.833 6159.07 94.5L6173.57 27.5L6234.57 20C6228.91 45.3333 6223.57 70.1667 6218.57 94.5C6213.57 118.833 6208.91 142.333 6204.57 165C6196.24 205.667 6188.91 244 6182.57 280C6176.24 316 6171.41 347.333 6168.07 374C6171.74 374 6171.07 374.5 6166.07 375.5C6161.41 376.167 6154.41 377.333 6145.07 379C6135.74 380.333 6125.74 382.167 6115.07 384.5C6104.41 386.833 6094.91 389.667 6086.57 393C6085.57 379.667 6084.57 366.667 6083.57 354C6082.57 341.333 6081.41 329 6080.07 317C6078.07 295.667 6075.74 274.5 6073.07 253.5C6070.41 232.5 6067.74 215.833 6065.07 203.5C6062.74 218.167 6059.91 235 6056.57 254C6053.24 272.667 6049.57 291.5 6045.57 310.5L6031.57 380.5L5958.57 397.5ZM6409.3 394C6409.97 388.333 6410.64 382.833 6411.3 377.5C6411.97 372.167 6412.64 366.833 6413.3 361.5L6416.3 333.5C6416.64 328.833 6416.97 324.5 6417.3 320.5C6417.64 316.5 6417.97 312.833 6418.3 309.5H6374.8L6354.8 381.5C6347.47 382.5 6338.8 383.667 6328.8 385C6318.8 386 6309.47 387 6300.8 388C6295.47 388.667 6290.14 389.333 6284.8 390C6279.8 390.667 6274.64 391.333 6269.3 392L6308.8 261C6313.47 245.333 6318.8 227.5 6324.8 207.5C6330.8 187.5 6336.8 167 6342.8 146C6349.14 125 6354.97 105.333 6360.3 87C6365.97 68.3333 6370.47 52.6666 6373.8 40C6396.47 38.3333 6419.47 36.3333 6442.8 34C6466.47 31.6666 6489.47 28.5 6511.8 24.5C6510.14 43.1666 6508.47 64.3333 6506.8 88C6505.47 111.333 6504.14 135.5 6502.8 160.5C6501.8 185.5 6500.64 210.167 6499.3 234.5C6498.64 257.5 6497.8 281.333 6496.8 306C6495.8 330.333 6494.8 355.333 6493.8 381C6488.8 381.667 6483.8 382.333 6478.8 383C6473.8 383.667 6468.8 384.333 6463.8 385C6455.47 386.333 6446.3 387.833 6436.3 389.5C6426.3 391.167 6417.3 392.667 6409.3 394ZM6386.8 259.5C6388.8 259.5 6392.47 259.333 6397.8 259C6403.47 258.667 6408.8 258.333 6413.8 258C6418.8 257.667 6421.8 257.5 6422.8 257.5C6422.8 253.167 6423.47 244.333 6424.8 231C6426.14 217.667 6427.47 203.667 6428.8 189C6429.47 180.333 6430.14 171.5 6430.8 162.5C6431.8 153.167 6432.8 143.667 6433.8 134L6436.8 90.5L6429.3 91L6417.8 134L6386.8 259.5ZM6607.61 407C6595.28 407 6583.45 404.333 6572.11 399C6561.11 393.667 6551.61 385.5 6543.61 374.5C6535.28 363.833 6528.78 350.333 6524.11 334C6519.45 317.667 6517.11 298.5 6517.11 276.5C6517.11 233.5 6523.28 196 6535.61 164C6547.95 132 6563.61 105.333 6582.61 84C6601.28 62.6666 6621.28 46.8333 6642.61 36.5C6664.28 26.1667 6684.45 21 6703.11 21C6721.11 21 6735.78 25 6747.11 33C6758.45 40.6666 6766.78 51 6772.11 64C6777.45 77 6780.11 91.5 6780.11 107.5L6711.61 120.5C6708.61 107.167 6704.61 97.6667 6699.61 92C6694.61 86.3333 6688.95 83.5 6682.61 83.5C6675.28 83.5 6667.61 87.5 6659.61 95.5C6651.95 103.5 6644.28 114.333 6636.61 128C6629.28 141.333 6622.61 156.333 6616.61 173C6610.61 189.667 6605.61 206.833 6601.61 224.5C6597.95 242.167 6595.78 258.833 6595.11 274.5C6595.11 295.167 6598.11 310 6604.11 319C6610.45 327.667 6618.45 332 6628.11 332C6637.45 332 6646.61 329 6655.61 323C6664.95 317 6672.61 309 6678.61 299C6684.95 288.667 6688.28 277.167 6688.61 264.5L6635.11 272.5L6644.61 223L6690.61 217C6703.28 215.333 6716.61 213.333 6730.61 211C6744.95 208.667 6757.45 206.5 6768.11 204.5C6765.78 238.5 6759.11 268.333 6748.11 294C6737.45 319.333 6724.11 340.333 6708.11 357C6692.11 373.667 6675.28 386.167 6657.61 394.5C6640.28 402.833 6623.61 407 6607.61 407ZM6749.63 395.5L6815.13 40L6973.13 26.5C6970.79 33.8333 6968.79 41.3333 6967.13 49C6965.46 55.3333 6963.79 62 6962.13 69C6960.79 75.6667 6959.63 81.6666 6958.63 87C6954.29 87.3333 6948.13 87.6667 6940.13 88C6932.13 88 6923.96 88.1667 6915.63 88.5C6907.29 88.5 6900.13 88.5 6894.13 88.5C6888.13 88.5 6884.96 88.5 6884.63 88.5L6867.13 178L6896.13 176.5C6899.79 176.167 6903.46 176 6907.13 176C6911.13 176 6914.96 176 6918.63 176C6922.29 176 6925.63 176 6928.63 176C6931.63 176 6933.96 175.833 6935.63 175.5C6934.96 180.167 6934.29 184.833 6933.63 189.5C6933.29 193.833 6932.79 198.333 6932.13 203L6927.63 230.5C6925.96 230.833 6923.79 231 6921.13 231C6918.46 231 6915.29 231 6911.63 231C6907.96 231.333 6904.13 231.5 6900.13 231.5C6896.13 231.5 6892.29 231.667 6888.63 232C6884.29 232.333 6879.79 232.5 6875.13 232.5C6870.46 232.5 6865.46 232.667 6860.13 233L6843.13 325L6916.13 313.5L6911.13 370.5L6749.63 395.5ZM6918.54 397.5C6928.54 349.5 6938.04 303 6947.04 258C6954.37 215.667 6961.54 175 6968.54 136C6975.54 97 6980.54 61.1666 6983.54 28.5C6985.87 28.8333 6987.87 29 6989.54 29C6991.54 29 6993.2 29 6994.54 29H7005.04C7013.7 29 7023.37 28.8333 7034.04 28.5C7044.7 27.8333 7054.54 27.3333 7063.54 27C7065.87 38.6666 7068.04 50.1666 7070.04 61.5C7072.37 72.8333 7074.37 83.8333 7076.04 94.5C7077.7 103.833 7079.54 113.5 7081.54 123.5C7083.54 133.167 7085.54 143 7087.54 153C7089.2 163 7090.87 172.333 7092.54 181C7094.54 189.333 7096.2 197 7097.54 204C7101.54 184.333 7105.2 165 7108.54 146C7112.2 127 7115.7 109.833 7119.04 94.5L7133.54 27.5L7194.54 20C7188.87 45.3333 7183.54 70.1667 7178.54 94.5C7173.54 118.833 7168.87 142.333 7164.54 165C7156.2 205.667 7148.87 244 7142.54 280C7136.2 316 7131.37 347.333 7128.04 374C7131.7 374 7131.04 374.5 7126.04 375.5C7121.37 376.167 7114.37 377.333 7105.04 379C7095.7 380.333 7085.7 382.167 7075.04 384.5C7064.37 386.833 7054.87 389.667 7046.54 393C7045.54 379.667 7044.54 366.667 7043.54 354C7042.54 341.333 7041.37 329 7040.04 317C7038.04 295.667 7035.7 274.5 7033.04 253.5C7030.37 232.5 7027.7 215.833 7025.04 203.5C7022.7 218.167 7019.87 235 7016.54 254C7013.2 272.667 7009.54 291.5 7005.54 310.5L6991.54 380.5L6918.54 397.5ZM7233.11 396C7212.11 396 7194.94 386.167 7181.61 366.5C7168.28 346.833 7161.61 319.833 7161.61 285.5C7161.61 254.167 7165.94 223.333 7174.61 193C7183.28 162.333 7195.44 134.833 7211.11 110.5C7226.78 86.1667 7245.28 66.6667 7266.61 52C7288.28 37 7312.11 29.5 7338.11 29.5C7354.44 29.5 7368.44 35.8333 7380.11 48.5C7391.78 61.1667 7397.61 78.1667 7397.61 99.5V105.5C7397.61 106.833 7397.61 108 7397.61 109C7397.61 110 7397.44 111.167 7397.11 112.5L7331.61 130C7327.61 121.667 7322.94 117.5 7317.61 117.5C7309.61 117.5 7301.11 124 7292.11 137C7283.44 150 7275.11 165.5 7267.11 183.5C7261.78 195.5 7256.94 207.833 7252.61 220.5C7248.61 233.167 7245.44 245 7243.11 256C7240.78 267 7239.61 276 7239.61 283C7239.61 293.333 7241.11 300.833 7244.11 305.5C7246.44 309.833 7250.11 312 7255.11 312C7260.11 312 7265.61 309.667 7271.61 305C7277.61 300 7283.11 293.833 7288.11 286.5C7293.44 279.167 7296.94 271.833 7298.61 264.5L7355.61 287.5C7339.28 324.833 7319.78 352.333 7297.11 370C7274.78 387.333 7253.44 396 7233.11 396ZM7387.64 387.5L7410.64 287C7410.64 263.333 7409.97 239.167 7408.64 214.5C7407.64 189.5 7406.31 164.667 7404.64 140C7403.31 115.333 7401.97 95.5 7400.64 80.5C7399.64 65.5 7399.14 58 7399.14 58L7480.64 27V88C7480.64 107.333 7480.47 124.833 7480.14 140.5C7480.14 155.833 7480.14 169.333 7480.14 181C7484.47 169.667 7489.64 155.667 7495.64 139C7501.97 122.333 7507.81 106.167 7513.14 90.5C7516.47 81.1667 7519.64 71.8333 7522.64 62.5C7525.97 52.8333 7529.31 42.8333 7532.64 32.5L7610.14 50C7595.81 78.3333 7581.81 106.833 7568.14 135.5C7560.14 153.167 7551.31 171.833 7541.64 191.5C7532.31 210.833 7523.47 229 7515.14 246C7507.14 262.667 7500.81 276 7496.14 286C7494.47 294.667 7492.31 304.167 7489.64 314.5C7487.31 324.833 7484.97 334.667 7482.64 344C7481.31 349.333 7479.81 354.833 7478.14 360.5C7476.47 365.833 7474.81 371.333 7473.14 377L7387.64 387.5Z" fill="url(#paint0_linear_51_2)"/>
<defs>
<linearGradient id="paint0_linear_51_2" x1="-20" y1="219" x2="7542" y2="219" gradientUnits="userSpaceOnUse">
<stop stop-color="#E6E6E6"/>
<stop offset="0.194712" stop-color="#B3B3B3"/>
<stop offset="0.389423" stop-color="#FA991B"/>
</linearGradient>
</defs>
</svg>
