<svg preserveAspectRatio="xMidYMid meet" width="100%" height="100%" overflow="visible" style="display: block;" viewBox="0 0 1246.56 794.504" fill="none" xmlns="http://www.w3.org/2000/svg">
<g id="CICERO WEB STUDIO">
<path d="M133.098 250.508C106.528 250.508 83.4592 245.435 63.8933 235.29C44.5691 224.903 29.5927 210.41 18.9644 191.81C8.57758 172.969 3.38417 150.867 3.38417 125.504C3.38417 100.141 8.57758 78.1595 18.9644 59.5599C29.5927 40.7187 44.5691 26.2255 63.8933 16.0802C83.4592 5.6934 106.528 0.5 133.098 0.5C158.462 0.5 180.322 4.48563 198.68 12.4569C217.28 20.4282 231.652 31.7812 241.798 46.516C251.943 61.2507 257.015 79.0049 257.015 99.7785V105.213H196.506V99.7785C196.506 83.836 191.554 71.9999 181.651 64.2702C171.989 56.5404 156.167 52.6756 134.185 52.6756C116.552 52.6756 102.3 55.0911 91.4305 59.9222C80.8021 64.5117 73.0724 72.1206 68.2413 82.749C63.4102 93.1358 60.9947 107.387 60.9947 125.504C60.9947 143.379 63.4102 157.631 68.2413 168.259C73.0724 178.887 80.8021 186.617 91.4305 191.448C102.3 196.038 116.552 198.332 134.185 198.332C156.167 198.332 171.989 194.468 181.651 186.738C191.554 179.008 196.506 167.172 196.506 151.229V145.794H257.015V151.229C257.015 171.762 251.943 189.516 241.798 204.492C231.652 219.227 217.28 230.58 198.68 238.551C180.322 246.522 158.462 250.508 133.098 250.508Z" fill="var(--fill-0, #D4610E)" fill-opacity="0.2"/>
<path d="M309.553 246.885H255.204V4.1233H309.553V246.885Z" fill="var(--fill-0, #D4610E)" fill-opacity="0.2"/>
<path d="M436.918 250.508C410.347 250.508 387.279 245.435 367.713 235.29C348.389 224.903 333.412 210.41 322.784 191.81C312.397 172.969 307.204 150.867 307.204 125.504C307.204 100.141 312.397 78.1595 322.784 59.5599C333.412 40.7187 348.389 26.2255 367.713 16.0802C387.279 5.6934 410.347 0.5 436.918 0.5C462.281 0.5 484.142 4.48563 502.5 12.4569C521.1 20.4282 535.472 31.7812 545.617 46.516C555.763 61.2507 560.835 79.0049 560.835 99.7785V105.213H500.326V99.7785C500.326 83.836 495.374 71.9999 485.47 64.2702C475.808 56.5404 459.987 52.6756 438.005 52.6756C420.372 52.6756 406.12 55.0911 395.25 59.9222C384.622 64.5117 376.892 72.1206 372.061 82.749C367.23 93.1358 364.814 107.387 364.814 125.504C364.814 143.379 367.23 157.631 372.061 168.259C376.892 178.887 384.622 186.617 395.25 191.448C406.12 196.038 420.372 198.332 438.005 198.332C459.987 198.332 475.808 194.468 485.47 186.738C495.374 179.008 500.326 167.172 500.326 151.229V145.794H560.835V151.229C560.835 171.762 555.763 189.516 545.617 204.492C535.472 219.227 521.1 230.58 502.5 238.551C484.142 246.522 462.281 250.508 436.918 250.508Z" fill="var(--fill-0, #D4610E)" fill-opacity="0.2"/>
<path d="M613.373 246.885H559.023V4.1233H613.373V246.885ZM764.465 246.885H574.241V197.97H764.465V246.885ZM759.03 149.055H574.241V100.503H759.03V149.055ZM764.465 53.0379H574.241V4.1233H764.465V53.0379Z" fill="var(--fill-0, #D4610E)" fill-opacity="0.2"/>
<path d="M818.005 246.885H763.655V4.1233H897.718C917.766 4.1233 934.796 7.02194 948.806 12.8192C962.816 18.375 973.445 26.5878 980.691 37.4577C987.938 48.3276 991.561 61.4923 991.561 76.9517C991.561 90.2372 989.025 101.59 983.952 111.011C978.88 120.431 971.271 128.04 961.125 133.838C950.98 139.393 938.299 142.896 923.081 144.345V147.244C933.951 150.142 942.043 154.49 947.357 160.288C952.671 166.085 957.623 173.211 962.212 181.665L997.358 246.885H934.313L900.979 183.839C897.597 177.559 894.094 172.607 890.471 168.984C886.848 165.36 882.137 162.824 876.34 161.375C870.784 159.684 863.296 158.838 853.876 158.838H818.005V246.885ZM818.005 53.0379V117.895H897.355C910.158 117.895 919.578 115.721 925.617 111.373C931.656 106.784 934.675 98.0877 934.675 85.2853C934.675 73.2076 931.656 64.874 925.617 60.2845C919.578 55.4534 910.158 53.0379 897.355 53.0379H818.005Z" fill="var(--fill-0, #D4610E)" fill-opacity="0.2"/>
<path d="M1114.17 250.508C1087.6 250.508 1064.41 245.435 1044.6 235.29C1025.03 224.903 1009.94 210.41 999.309 191.81C988.922 172.969 983.729 150.867 983.729 125.504C983.729 100.141 988.922 78.1595 999.309 59.5599C1009.94 40.7187 1025.03 26.2255 1044.6 16.0802C1064.41 5.6934 1087.6 0.5 1114.17 0.5C1141.7 0.5 1165.26 5.6934 1184.82 16.0802C1204.39 26.2255 1219.48 40.7187 1230.11 59.5599C1240.74 78.1595 1246.06 100.141 1246.06 125.504C1246.06 150.867 1240.74 172.969 1230.11 191.81C1219.48 210.41 1204.39 224.903 1184.82 235.29C1165.26 245.435 1141.7 250.508 1114.17 250.508ZM1114.17 198.332C1132.04 198.332 1146.29 196.038 1156.92 191.448C1167.79 186.617 1175.64 178.887 1180.47 168.259C1185.55 157.631 1188.08 143.379 1188.08 125.504C1188.08 107.387 1185.55 93.1358 1180.47 82.749C1175.64 72.1206 1167.79 64.5117 1156.92 59.9222C1146.29 55.0911 1132.04 52.6756 1114.17 52.6756C1096.53 52.6756 1082.4 55.0911 1071.77 59.9222C1061.15 64.5117 1053.42 72.1206 1048.59 82.749C1043.75 93.1358 1041.34 107.387 1041.34 125.504C1041.34 143.379 1043.75 157.631 1048.59 168.259C1053.42 178.887 1061.15 186.617 1071.77 191.448C1082.4 196.038 1096.53 198.332 1114.17 198.332Z" fill="var(--fill-0, #D4610E)" fill-opacity="0.2"/>
<path d="M158.099 408.484C166.312 427.325 170.418 444.476 170.418 459.935C170.418 471.288 168.728 481.312 165.346 490.008C162.206 498.463 157.737 508.004 151.94 518.633L61.7194 319.351C54.2312 303.408 45.6561 291.331 35.9939 283.118C26.3318 274.663 14.3749 268.625 0.123199 265.001C25.4863 265.001 45.6561 266.813 60.6324 270.436C75.6087 273.818 87.3241 279.374 95.7784 287.103C104.474 294.833 111.842 305.582 117.881 319.351L158.099 408.484ZM286.002 408.484C294.215 427.325 298.321 444.476 298.321 459.935C298.321 471.288 296.63 481.312 293.248 490.008C290.108 498.463 285.64 508.004 279.842 518.633L189.622 319.351C182.134 303.408 173.559 291.331 163.897 283.118C154.234 274.663 142.278 268.625 128.026 265.001H266.798C248.682 270.798 239.624 280.823 239.624 295.075C239.624 302.321 241.677 310.413 245.783 319.351L286.002 408.484ZM404.484 265.001C393.372 268.625 384.556 272.61 378.034 276.958C371.512 281.065 366.077 286.379 361.729 292.901C357.623 299.423 353.758 308.239 350.134 319.351C346.511 308.239 342.525 299.423 338.177 292.901C334.071 286.379 328.757 281.065 322.235 276.958C315.713 272.61 306.896 268.625 295.785 265.001H404.484Z" fill="#F5F5F5"/>
<path d="M376.233 518.633C382.997 511.627 387.949 505.106 391.089 499.067C394.471 493.028 396.766 486.144 397.973 478.414C399.181 470.443 399.785 459.693 399.785 446.166V337.467C399.785 323.94 399.181 313.312 397.973 305.582C396.766 297.611 394.471 290.606 391.089 284.567C387.949 278.528 382.997 272.006 376.233 265.001H470.439C463.676 272.006 458.603 278.528 455.222 284.567C452.081 290.606 449.907 297.611 448.7 305.582C447.492 313.312 446.888 323.94 446.888 337.467V446.166C446.888 459.693 447.492 470.443 448.7 478.414C449.907 486.144 452.081 493.028 455.222 499.067C458.603 505.106 463.676 511.627 470.439 518.633H376.233ZM561.022 319.351C557.399 308.239 553.413 299.423 549.065 292.901C544.959 286.379 539.645 281.065 533.123 276.958C526.601 272.61 517.784 268.625 506.672 265.001H561.022V319.351ZM466.816 389.281C475.512 388.797 485.295 386.02 496.165 380.947C507.035 375.633 515.368 369.352 521.166 362.106V416.455C515.127 409.209 506.672 403.049 495.803 397.976C485.174 392.662 475.512 389.764 466.816 389.281ZM506.672 518.633C517.784 515.009 526.601 511.144 533.123 507.038C539.645 502.69 544.959 497.255 549.065 490.733C553.413 484.211 557.399 475.394 561.022 464.283V518.633H506.672Z" fill="#F5F5F5"/>
<path d="M555.035 518.633C561.799 511.627 566.75 505.106 569.891 499.067C573.272 493.028 575.567 486.144 576.775 478.414C577.983 470.443 578.587 459.693 578.587 446.166V337.467C578.587 323.94 577.983 313.312 576.775 305.582C575.567 297.611 573.272 290.606 569.891 284.567C566.75 278.528 561.799 272.006 555.035 265.001H649.241C642.477 272.006 637.405 278.528 634.023 284.567C630.883 290.606 628.709 297.611 627.501 305.582C626.293 313.312 625.69 323.94 625.69 337.467V446.166C625.69 459.693 626.293 470.443 627.501 478.414C628.709 486.144 630.883 493.028 634.023 499.067C637.405 505.106 642.477 511.627 649.241 518.633H555.035ZM685.474 518.633C704.315 513.56 719.292 505.226 730.403 493.632C741.756 481.796 747.432 466.215 747.432 446.891C747.432 434.089 743.326 422.615 735.113 412.47C726.9 402.324 716.634 394.112 704.315 387.831C691.996 381.551 679.677 377.324 667.357 375.15C683.783 371.526 698.759 364.884 712.286 355.221C726.055 345.559 732.939 333.844 732.939 320.075C732.939 305.341 728.954 293.746 720.982 285.292C713.253 276.837 701.417 270.074 685.474 265.001C714.702 265.001 738.978 268.745 758.302 276.233C777.627 283.48 787.289 298.094 787.289 320.075C787.289 340.607 780.163 354.618 765.911 362.106C751.66 369.352 736.321 373.7 719.895 375.15C739.944 376.841 758.544 382.879 775.694 393.266C793.086 403.653 801.782 421.528 801.782 446.891C801.782 474.187 790.791 493.028 768.81 503.415C746.829 513.56 719.05 518.633 685.474 518.633Z" fill="#F5F5F5"/>
<path d="M118.968 794.004C94.5707 794.004 73.7971 790.863 56.6467 784.583C39.4964 778.061 26.4525 768.52 17.5151 755.959C8.57758 743.157 4.10883 727.335 4.10883 708.494V706.32H58.4584V712.842C58.4584 720.33 60.0285 726.369 63.1687 730.958C66.5504 735.548 72.5893 738.929 81.2852 741.103C89.9811 743.277 102.542 744.364 118.968 744.364C133.461 744.364 144.572 743.64 152.302 742.19C160.032 740.5 165.346 737.963 168.245 734.581C171.143 731.2 172.592 726.852 172.592 721.538C172.592 714.049 170.056 708.614 164.984 705.233C160.152 701.851 151.577 699.073 139.258 696.899L71.14 687.116C56.6467 684.701 44.2067 680.715 33.8199 675.159C23.6747 669.604 15.8242 662.236 10.2685 653.057C4.71272 643.637 1.93485 632.283 1.93485 618.998C1.93485 609.819 3.86728 600.761 7.73214 591.823C11.8385 582.886 18.2397 574.915 26.9356 567.909C35.6316 560.663 46.9846 554.866 60.9947 550.518C75.2464 546.17 92.6382 543.996 113.17 543.996C138.05 543.996 158.462 547.619 174.404 554.866C190.588 561.871 202.666 571.895 210.637 584.939C218.608 597.741 222.594 612.597 222.594 629.506V631.68H167.882V626.607C167.882 618.877 166.191 612.597 162.81 607.766C159.669 602.935 153.751 599.432 145.055 597.258C136.359 594.843 123.919 593.635 107.735 593.635C94.6914 593.635 84.4254 594.48 76.9372 596.171C69.6906 597.862 64.4972 600.398 61.357 603.78C58.2168 607.162 56.6467 611.51 56.6467 616.824C56.6467 621.414 57.613 625.278 59.5454 628.419C61.4778 631.317 64.4972 633.612 68.6036 635.303C72.7101 636.994 78.145 638.443 84.9085 639.651L153.027 650.521C171.143 653.419 185.516 658.13 196.144 664.652C207.014 671.174 214.864 679.145 219.695 688.565C224.527 697.745 226.942 707.89 226.942 719.001C226.942 732.045 223.319 744.364 216.072 755.959C208.826 767.312 197.231 776.491 181.288 783.496C165.346 790.501 144.572 794.004 118.968 794.004Z" fill="#413D3D" fill-opacity="0.2"/>
<path d="M358.861 790.38H304.512V547.619H358.861V790.38ZM449.082 596.534H214.292V547.619H449.082V596.534Z" fill="#413D3D" fill-opacity="0.2"/>
<path d="M560.6 794.004C534.271 794.004 512.289 789.776 494.656 781.322C477.023 772.868 463.737 760.79 454.8 745.089C445.862 729.388 441.394 710.668 441.394 688.928V547.619H495.743V684.942C495.743 698.711 497.676 709.822 501.54 718.277C505.647 726.489 512.41 732.407 521.831 736.031C531.493 739.413 544.416 741.103 560.6 741.103C577.267 741.103 590.311 739.413 599.732 736.031C609.152 732.407 615.795 726.489 619.66 718.277C623.525 709.822 625.457 698.711 625.457 684.942V547.619H679.807V688.928C679.807 710.668 675.338 729.388 666.401 745.089C657.463 760.79 644.178 772.868 626.544 781.322C609.152 789.776 587.171 794.004 560.6 794.004Z" fill="#413D3D" fill-opacity="0.2"/>
<path d="M801.737 790.38H699.56V741.466H801.737C818.404 741.466 831.689 739.533 841.593 735.668C851.738 731.562 859.106 724.315 863.695 713.929C868.526 703.3 870.942 688.324 870.942 669C870.942 649.434 868.526 634.457 863.695 624.071C859.106 613.684 851.738 606.558 841.593 602.693C831.689 598.587 818.404 596.534 801.737 596.534H699.56V547.619H801.737C827.825 547.619 850.289 552.45 869.13 562.112C888.213 571.774 902.948 585.664 913.335 603.78C923.721 621.897 928.915 643.637 928.915 669C928.915 694.363 923.721 716.103 913.335 734.219C902.948 752.336 888.213 766.225 869.13 775.887C850.289 785.549 827.825 790.38 801.737 790.38ZM739.054 790.38H684.704V547.619H739.054V790.38Z" fill="#413D3D" fill-opacity="0.2"/>
<path d="M981.478 790.38H927.129V547.619H981.478V790.38Z" fill="#413D3D" fill-opacity="0.2"/>
<path d="M1109.57 794.004C1083 794.004 1059.81 788.931 1040 778.786C1020.43 768.399 1005.34 753.906 994.709 735.306C984.322 716.465 979.129 694.363 979.129 669C979.129 643.637 984.322 621.655 994.709 603.055C1005.34 584.214 1020.43 569.721 1040 559.576C1059.81 549.189 1083 543.996 1109.57 543.996C1137.1 543.996 1160.66 549.189 1180.22 559.576C1199.79 569.721 1214.88 584.214 1225.51 603.055C1236.14 621.655 1241.46 643.637 1241.46 669C1241.46 694.363 1236.14 716.465 1225.51 735.306C1214.88 753.906 1199.79 768.399 1180.22 778.786C1160.66 788.931 1137.1 794.004 1109.57 794.004ZM1109.57 741.828C1127.44 741.828 1141.69 739.533 1152.32 734.944C1163.19 730.113 1171.04 722.383 1175.87 711.755C1180.95 701.126 1183.48 686.875 1183.48 669C1183.48 650.883 1180.95 636.631 1175.87 626.245C1171.04 615.616 1163.19 608.007 1152.32 603.418C1141.69 598.587 1127.44 596.171 1109.57 596.171C1091.93 596.171 1077.8 598.587 1067.17 603.418C1056.55 608.007 1048.82 615.616 1043.99 626.245C1039.15 636.631 1036.74 650.883 1036.74 669C1036.74 686.875 1039.15 701.126 1043.99 711.755C1048.82 722.383 1056.55 730.113 1067.17 734.944C1077.8 739.533 1091.93 741.828 1109.57 741.828Z" fill="#413D3D" fill-opacity="0.2"/>
<path d="M133.098 250.508C106.528 250.508 83.4592 245.435 63.8933 235.29C44.5691 224.903 29.5927 210.41 18.9644 191.81C8.57758 172.969 3.38417 150.867 3.38417 125.504C3.38417 100.141 8.57758 78.1595 18.9644 59.5599C29.5927 40.7187 44.5691 26.2255 63.8933 16.0802C83.4592 5.6934 106.528 0.5 133.098 0.5C158.462 0.5 180.322 4.48563 198.68 12.4569C217.28 20.4282 231.652 31.7812 241.798 46.516C251.943 61.2507 257.015 79.0049 257.015 99.7785V105.213H196.506V99.7785C196.506 83.836 191.554 71.9999 181.651 64.2702C171.989 56.5404 156.167 52.6756 134.185 52.6756C116.552 52.6756 102.3 55.0911 91.4305 59.9222C80.8021 64.5117 73.0724 72.1206 68.2413 82.749C63.4102 93.1358 60.9947 107.387 60.9947 125.504C60.9947 143.379 63.4102 157.631 68.2413 168.259C73.0724 178.887 80.8021 186.617 91.4305 191.448C102.3 196.038 116.552 198.332 134.185 198.332C156.167 198.332 171.989 194.468 181.651 186.738C191.554 179.008 196.506 167.172 196.506 151.229V145.794H257.015V151.229C257.015 171.762 251.943 189.516 241.798 204.492C231.652 219.227 217.28 230.58 198.68 238.551C180.322 246.522 158.462 250.508 133.098 250.508Z" stroke="var(--stroke-0, white)"/>
<path d="M309.553 246.885H255.204V4.1233H309.553V246.885Z" stroke="var(--stroke-0, white)"/>
<path d="M436.918 250.508C410.347 250.508 387.279 245.435 367.713 235.29C348.389 224.903 333.412 210.41 322.784 191.81C312.397 172.969 307.204 150.867 307.204 125.504C307.204 100.141 312.397 78.1595 322.784 59.5599C333.412 40.7187 348.389 26.2255 367.713 16.0802C387.279 5.6934 410.347 0.5 436.918 0.5C462.281 0.5 484.142 4.48563 502.5 12.4569C521.1 20.4282 535.472 31.7812 545.617 46.516C555.763 61.2507 560.835 79.0049 560.835 99.7785V105.213H500.326V99.7785C500.326 83.836 495.374 71.9999 485.47 64.2702C475.808 56.5404 459.987 52.6756 438.005 52.6756C420.372 52.6756 406.12 55.0911 395.25 59.9222C384.622 64.5117 376.892 72.1206 372.061 82.749C367.23 93.1358 364.814 107.387 364.814 125.504C364.814 143.379 367.23 157.631 372.061 168.259C376.892 178.887 384.622 186.617 395.25 191.448C406.12 196.038 420.372 198.332 438.005 198.332C459.987 198.332 475.808 194.468 485.47 186.738C495.374 179.008 500.326 167.172 500.326 151.229V145.794H560.835V151.229C560.835 171.762 555.763 189.516 545.617 204.492C535.472 219.227 521.1 230.58 502.5 238.551C484.142 246.522 462.281 250.508 436.918 250.508Z" stroke="var(--stroke-0, white)"/>
<path d="M613.373 246.885H559.023V4.1233H613.373V246.885ZM764.465 246.885H574.241V197.97H764.465V246.885ZM759.03 149.055H574.241V100.503H759.03V149.055ZM764.465 53.0379H574.241V4.1233H764.465V53.0379Z" stroke="var(--stroke-0, white)"/>
<path d="M818.005 246.885H763.655V4.1233H897.718C917.766 4.1233 934.796 7.02194 948.806 12.8192C962.816 18.375 973.445 26.5878 980.691 37.4577C987.938 48.3276 991.561 61.4923 991.561 76.9517C991.561 90.2372 989.025 101.59 983.952 111.011C978.88 120.431 971.271 128.04 961.125 133.838C950.98 139.393 938.299 142.896 923.081 144.345V147.244C933.951 150.142 942.043 154.49 947.357 160.288C952.671 166.085 957.623 173.211 962.212 181.665L997.358 246.885H934.313L900.979 183.839C897.597 177.559 894.094 172.607 890.471 168.984C886.848 165.36 882.137 162.824 876.34 161.375C870.784 159.684 863.296 158.838 853.876 158.838H818.005V246.885ZM818.005 53.0379V117.895H897.355C910.158 117.895 919.578 115.721 925.617 111.373C931.656 106.784 934.675 98.0877 934.675 85.2853C934.675 73.2076 931.656 64.874 925.617 60.2845C919.578 55.4534 910.158 53.0379 897.355 53.0379H818.005Z" stroke="var(--stroke-0, white)"/>
<path d="M1114.17 250.508C1087.6 250.508 1064.41 245.435 1044.6 235.29C1025.03 224.903 1009.94 210.41 999.309 191.81C988.922 172.969 983.729 150.867 983.729 125.504C983.729 100.141 988.922 78.1595 999.309 59.5599C1009.94 40.7187 1025.03 26.2255 1044.6 16.0802C1064.41 5.6934 1087.6 0.5 1114.17 0.5C1141.7 0.5 1165.26 5.6934 1184.82 16.0802C1204.39 26.2255 1219.48 40.7187 1230.11 59.5599C1240.74 78.1595 1246.06 100.141 1246.06 125.504C1246.06 150.867 1240.74 172.969 1230.11 191.81C1219.48 210.41 1204.39 224.903 1184.82 235.29C1165.26 245.435 1141.7 250.508 1114.17 250.508ZM1114.17 198.332C1132.04 198.332 1146.29 196.038 1156.92 191.448C1167.79 186.617 1175.64 178.887 1180.47 168.259C1185.55 157.631 1188.08 143.379 1188.08 125.504C1188.08 107.387 1185.55 93.1358 1180.47 82.749C1175.64 72.1206 1167.79 64.5117 1156.92 59.9222C1146.29 55.0911 1132.04 52.6756 1114.17 52.6756C1096.53 52.6756 1082.4 55.0911 1071.77 59.9222C1061.15 64.5117 1053.42 72.1206 1048.59 82.749C1043.75 93.1358 1041.34 107.387 1041.34 125.504C1041.34 143.379 1043.75 157.631 1048.59 168.259C1053.42 178.887 1061.15 186.617 1071.77 191.448C1082.4 196.038 1096.53 198.332 1114.17 198.332Z" stroke="var(--stroke-0, white)"/>
<path d="M158.099 408.484C166.312 427.325 170.418 444.476 170.418 459.935C170.418 471.288 168.728 481.312 165.346 490.008C162.206 498.463 157.737 508.004 151.94 518.633L61.7194 319.351C54.2312 303.408 45.6561 291.331 35.9939 283.118C26.3318 274.663 14.3749 268.625 0.123199 265.001C25.4863 265.001 45.6561 266.813 60.6324 270.436C75.6087 273.818 87.3241 279.374 95.7784 287.103C104.474 294.833 111.842 305.582 117.881 319.351L158.099 408.484ZM286.002 408.484C294.215 427.325 298.321 444.476 298.321 459.935C298.321 471.288 296.63 481.312 293.248 490.008C290.108 498.463 285.64 508.004 279.842 518.633L189.622 319.351C182.134 303.408 173.559 291.331 163.897 283.118C154.234 274.663 142.278 268.625 128.026 265.001H266.798C248.682 270.798 239.624 280.823 239.624 295.075C239.624 302.321 241.677 310.413 245.783 319.351L286.002 408.484ZM404.484 265.001C393.372 268.625 384.556 272.61 378.034 276.958C371.512 281.065 366.077 286.379 361.729 292.901C357.623 299.423 353.758 308.239 350.134 319.351C346.511 308.239 342.525 299.423 338.177 292.901C334.071 286.379 328.757 281.065 322.235 276.958C315.713 272.61 306.896 268.625 295.785 265.001H404.484Z" stroke="var(--stroke-0, white)"/>
<path d="M376.233 518.633C382.997 511.627 387.949 505.106 391.089 499.067C394.471 493.028 396.766 486.144 397.973 478.414C399.181 470.443 399.785 459.693 399.785 446.166V337.467C399.785 323.94 399.181 313.312 397.973 305.582C396.766 297.611 394.471 290.606 391.089 284.567C387.949 278.528 382.997 272.006 376.233 265.001H470.439C463.676 272.006 458.603 278.528 455.222 284.567C452.081 290.606 449.907 297.611 448.7 305.582C447.492 313.312 446.888 323.94 446.888 337.467V446.166C446.888 459.693 447.492 470.443 448.7 478.414C449.907 486.144 452.081 493.028 455.222 499.067C458.603 505.106 463.676 511.627 470.439 518.633H376.233ZM561.022 319.351C557.399 308.239 553.413 299.423 549.065 292.901C544.959 286.379 539.645 281.065 533.123 276.958C526.601 272.61 517.784 268.625 506.672 265.001H561.022V319.351ZM466.816 389.281C475.512 388.797 485.295 386.02 496.165 380.947C507.035 375.633 515.368 369.352 521.166 362.106V416.455C515.127 409.209 506.672 403.049 495.803 397.976C485.174 392.662 475.512 389.764 466.816 389.281ZM506.672 518.633C517.784 515.009 526.601 511.144 533.123 507.038C539.645 502.69 544.959 497.255 549.065 490.733C553.413 484.211 557.399 475.394 561.022 464.283V518.633H506.672Z" stroke="var(--stroke-0, white)"/>
<path d="M555.035 518.633C561.799 511.627 566.75 505.106 569.891 499.067C573.272 493.028 575.567 486.144 576.775 478.414C577.983 470.443 578.587 459.693 578.587 446.166V337.467C578.587 323.94 577.983 313.312 576.775 305.582C575.567 297.611 573.272 290.606 569.891 284.567C566.75 278.528 561.799 272.006 555.035 265.001H649.241C642.477 272.006 637.405 278.528 634.023 284.567C630.883 290.606 628.709 297.611 627.501 305.582C626.293 313.312 625.69 323.94 625.69 337.467V446.166C625.69 459.693 626.293 470.443 627.501 478.414C628.709 486.144 630.883 493.028 634.023 499.067C637.405 505.106 642.477 511.627 649.241 518.633H555.035ZM685.474 518.633C704.315 513.56 719.292 505.226 730.403 493.632C741.756 481.796 747.432 466.215 747.432 446.891C747.432 434.089 743.326 422.615 735.113 412.47C726.9 402.324 716.634 394.112 704.315 387.831C691.996 381.551 679.677 377.324 667.357 375.15C683.783 371.526 698.759 364.884 712.286 355.221C726.055 345.559 732.939 333.844 732.939 320.075C732.939 305.341 728.954 293.746 720.982 285.292C713.253 276.837 701.417 270.074 685.474 265.001C714.702 265.001 738.978 268.745 758.302 276.233C777.627 283.48 787.289 298.094 787.289 320.075C787.289 340.607 780.163 354.618 765.911 362.106C751.66 369.352 736.321 373.7 719.895 375.15C739.944 376.841 758.544 382.879 775.694 393.266C793.086 403.653 801.782 421.528 801.782 446.891C801.782 474.187 790.791 493.028 768.81 503.415C746.829 513.56 719.05 518.633 685.474 518.633Z" stroke="var(--stroke-0, white)"/>
<path d="M118.968 794.004C94.5707 794.004 73.7971 790.863 56.6467 784.583C39.4964 778.061 26.4525 768.52 17.5151 755.959C8.57758 743.157 4.10883 727.335 4.10883 708.494V706.32H58.4584V712.842C58.4584 720.33 60.0285 726.369 63.1687 730.958C66.5504 735.548 72.5893 738.929 81.2852 741.103C89.9811 743.277 102.542 744.364 118.968 744.364C133.461 744.364 144.572 743.64 152.302 742.19C160.032 740.5 165.346 737.963 168.245 734.581C171.143 731.2 172.592 726.852 172.592 721.538C172.592 714.049 170.056 708.614 164.984 705.233C160.152 701.851 151.577 699.073 139.258 696.899L71.14 687.116C56.6467 684.701 44.2067 680.715 33.8199 675.159C23.6747 669.604 15.8242 662.236 10.2685 653.057C4.71272 643.637 1.93485 632.283 1.93485 618.998C1.93485 609.819 3.86728 600.761 7.73214 591.823C11.8385 582.886 18.2397 574.915 26.9356 567.909C35.6316 560.663 46.9846 554.866 60.9947 550.518C75.2464 546.17 92.6382 543.996 113.17 543.996C138.05 543.996 158.462 547.619 174.404 554.866C190.588 561.871 202.666 571.895 210.637 584.939C218.608 597.741 222.594 612.597 222.594 629.506V631.68H167.882V626.607C167.882 618.877 166.191 612.597 162.81 607.766C159.669 602.935 153.751 599.432 145.055 597.258C136.359 594.843 123.919 593.635 107.735 593.635C94.6914 593.635 84.4254 594.48 76.9372 596.171C69.6906 597.862 64.4972 600.398 61.357 603.78C58.2168 607.162 56.6467 611.51 56.6467 616.824C56.6467 621.414 57.613 625.278 59.5454 628.419C61.4778 631.317 64.4972 633.612 68.6036 635.303C72.7101 636.994 78.145 638.443 84.9085 639.651L153.027 650.521C171.143 653.419 185.516 658.13 196.144 664.652C207.014 671.174 214.864 679.145 219.695 688.565C224.527 697.745 226.942 707.89 226.942 719.001C226.942 732.045 223.319 744.364 216.072 755.959C208.826 767.312 197.231 776.491 181.288 783.496C165.346 790.501 144.572 794.004 118.968 794.004Z" stroke="var(--stroke-0, white)"/>
<path d="M358.861 790.38H304.512V547.619H358.861V790.38ZM449.082 596.534H214.292V547.619H449.082V596.534Z" stroke="var(--stroke-0, white)"/>
<path d="M560.6 794.004C534.271 794.004 512.289 789.776 494.656 781.322C477.023 772.868 463.737 760.79 454.8 745.089C445.862 729.388 441.394 710.668 441.394 688.928V547.619H495.743V684.942C495.743 698.711 497.676 709.822 501.54 718.277C505.647 726.489 512.41 732.407 521.831 736.031C531.493 739.413 544.416 741.103 560.6 741.103C577.267 741.103 590.311 739.413 599.732 736.031C609.152 732.407 615.795 726.489 619.66 718.277C623.525 709.822 625.457 698.711 625.457 684.942V547.619H679.807V688.928C679.807 710.668 675.338 729.388 666.401 745.089C657.463 760.79 644.178 772.868 626.544 781.322C609.152 789.776 587.171 794.004 560.6 794.004Z" stroke="var(--stroke-0, white)"/>
<path d="M801.737 790.38H699.56V741.466H801.737C818.404 741.466 831.689 739.533 841.593 735.668C851.738 731.562 859.106 724.315 863.695 713.929C868.526 703.3 870.942 688.324 870.942 669C870.942 649.434 868.526 634.457 863.695 624.071C859.106 613.684 851.738 606.558 841.593 602.693C831.689 598.587 818.404 596.534 801.737 596.534H699.56V547.619H801.737C827.825 547.619 850.289 552.45 869.13 562.112C888.213 571.774 902.948 585.664 913.335 603.78C923.721 621.897 928.915 643.637 928.915 669C928.915 694.363 923.721 716.103 913.335 734.219C902.948 752.336 888.213 766.225 869.13 775.887C850.289 785.549 827.825 790.38 801.737 790.38ZM739.054 790.38H684.704V547.619H739.054V790.38Z" stroke="var(--stroke-0, white)"/>
<path d="M981.478 790.38H927.129V547.619H981.478V790.38Z" stroke="var(--stroke-0, white)"/>
<path d="M1109.57 794.004C1083 794.004 1059.81 788.931 1040 778.786C1020.43 768.399 1005.34 753.906 994.709 735.306C984.322 716.465 979.129 694.363 979.129 669C979.129 643.637 984.322 621.655 994.709 603.055C1005.34 584.214 1020.43 569.721 1040 559.576C1059.81 549.189 1083 543.996 1109.57 543.996C1137.1 543.996 1160.66 549.189 1180.22 559.576C1199.79 569.721 1214.88 584.214 1225.51 603.055C1236.14 621.655 1241.46 643.637 1241.46 669C1241.46 694.363 1236.14 716.465 1225.51 735.306C1214.88 753.906 1199.79 768.399 1180.22 778.786C1160.66 788.931 1137.1 794.004 1109.57 794.004ZM1109.57 741.828C1127.44 741.828 1141.69 739.533 1152.32 734.944C1163.19 730.113 1171.04 722.383 1175.87 711.755C1180.95 701.126 1183.48 686.875 1183.48 669C1183.48 650.883 1180.95 636.631 1175.87 626.245C1171.04 615.616 1163.19 608.007 1152.32 603.418C1141.69 598.587 1127.44 596.171 1109.57 596.171C1091.93 596.171 1077.8 598.587 1067.17 603.418C1056.55 608.007 1048.82 615.616 1043.99 626.245C1039.15 636.631 1036.74 650.883 1036.74 669C1036.74 686.875 1039.15 701.126 1043.99 711.755C1048.82 722.383 1056.55 730.113 1067.17 734.944C1077.8 739.533 1091.93 741.828 1109.57 741.828Z" stroke="var(--stroke-0, white)"/>
</g>
</svg>
